<?xml version="1.0" encoding="utf-8"?>
<!-- Generator: Adobe Illustrator 16.0.3, SVG Export Plug-In . SVG Version: 6.00 Build 0)  -->
<!DOCTYPE svg PUBLIC "-//W3C//DTD SVG 1.1//EN" "http://www.w3.org/Graphics/SVG/1.1/DTD/svg11.dtd">
<svg version="1.1" id="Layer_1" xmlns="http://www.w3.org/2000/svg" xmlns:xlink="http://www.w3.org/1999/xlink" x="0px" y="0px"
	 width="40px" height="40px" viewBox="0 0 40 40" style="enable-background:new 0 0 40 40;" xml:space="preserve">
<style type="text/css">
<![CDATA[
	.st0{fill:#BAB5A8;}
]]>
</style>
<g>
	<path class="st0" d="M20.796,34.965C8.944,35.212-3.677,25.396,0.998,21.422c2.816-2.393,6.404,7.452,9.583,6.544
		C12.216,27.499,1.231,6.23,7.075,5.063c4.449-0.89,3.427,17.105,5.842,18.229c5.795,2.268-0.762-12.151,1.87-14.257
		c3.506-2.805,3.444,6.377,3.458,8.53c-0.038,1.928-1.693,8.302,1.074,8.866c3.782,0.811,2.79-3.518,2.547-5.62
		c-0.365-1.595-3.299-8.114,0.555-8.039c2.891,0.056,1.872,12.966,3.68,11.864c2.524-1.538,0.839-10.982,2.3-16.113
		c0.778-2.734,3.716-1.571,3.905,0.303c0.048,3.347-3.616,8.516-1.802,10.964c2.431,3.279,2.87-7.707,7.347-4.563
		c2.572,1.809-7.545,8.925-6.866,11.886c0.733,3.197,3.578-3.219,6.26-4.073c2.271-0.724,4.271,2.981,1.147,6.095
		C34.639,32.633,26.804,34.84,20.796,34.965z"/>
</g>
</svg>
