<?xml version="1.0" encoding="utf-8"?>
<!-- Generator: Adobe Illustrator 16.0.3, SVG Export Plug-In . SVG Version: 6.00 Build 0)  -->
<!DOCTYPE svg PUBLIC "-//W3C//DTD SVG 1.1//EN" "http://www.w3.org/Graphics/SVG/1.1/DTD/svg11.dtd">
<svg version="1.1" id="Layer_1" xmlns="http://www.w3.org/2000/svg" xmlns:xlink="http://www.w3.org/1999/xlink" x="0px" y="0px"
	 width="40px" height="40px" viewBox="0 0 40 40" style="enable-background:new 0 0 40 40;" xml:space="preserve">
<style type="text/css">
<![CDATA[
	.st0{fill:#840084;}
	.st1{fill:#45014F;}
]]>
</style>
<g>
	<path class="st1" d="M19.59,0.215C18.288,1.6,17.468,3.29,18.375,5.134c1.032,2.097,3.25,3.682,1.584,6.1
		c-0.513,0.744,0.699,1.441,1.205,0.705c1.061-1.537,1.107-3.041,0.228-4.667c-1.226-2.265-3.097-3.644-0.813-6.069
		C21.192,0.548,20.208-0.44,19.59,0.215L19.59,0.215z"/>
	<g>
		<path class="st1" d="M15.114,29.068c0-2.732-2.215-4.947-4.948-4.947c-0.257,0-0.504,0.039-0.75,0.076
			c0.572,2.854,1.951,6.136,3.521,8.97C14.249,32.275,15.114,30.773,15.114,29.068z"/>
		<path class="st1" d="M29.758,24.122c-2.73,0-4.945,2.215-4.945,4.946c0,1.729,0.893,3.248,2.234,4.132
			c1.576-2.839,2.961-6.13,3.537-8.994C30.314,24.16,30.041,24.122,29.758,24.122z"/>
	</g>
	<path class="st0" d="M20,9.607c-5.322,0-9.638,5.393-9.638,12.045c0,0.785,0.106,1.646,0.288,2.545
		c0.246-0.038,0.494-0.076,0.751-0.076c2.731,0,4.948,2.215,4.948,4.947c0,1.705-0.864,3.207-2.178,4.1
		C16.293,36.994,18.749,40,20,40c1.25,0,3.695-2.988,5.812-6.8c-1.346-0.886-2.236-2.403-2.236-4.132
		c0-2.731,2.215-4.946,4.945-4.946c0.285,0,0.557,0.039,0.828,0.084c0.182-0.901,0.287-1.765,0.287-2.554
		C29.637,15,25.322,9.607,20,9.607z M17.845,35.441c-0.516,0-0.934-0.418-0.934-0.936s0.418-0.938,0.934-0.938
		c0.517,0,0.936,0.42,0.936,0.938C18.78,35.023,18.36,35.441,17.845,35.441z M21.924,35.441c-0.516,0-0.936-0.418-0.936-0.936
		s0.42-0.938,0.936-0.938c0.518,0,0.936,0.42,0.936,0.938S22.441,35.441,21.924,35.441z"/>
</g>
</svg>
