<?xml version="1.0" encoding="utf-8"?>
<!-- Generator: Adobe Illustrator 16.0.3, SVG Export Plug-In . SVG Version: 6.00 Build 0)  -->
<!DOCTYPE svg PUBLIC "-//W3C//DTD SVG 1.1//EN" "http://www.w3.org/Graphics/SVG/1.1/DTD/svg11.dtd">
<svg version="1.1" id="Layer_1" xmlns="http://www.w3.org/2000/svg" xmlns:xlink="http://www.w3.org/1999/xlink" x="0px" y="0px"
	 width="80px" height="80px" viewBox="0 0 80 80" style="enable-background:new 0 0 80 80;" xml:space="preserve">
<style type="text/css">
<![CDATA[
	.st0{fill:#F15A24;}
	.st1{fill:#F7931E;}
	.st2{fill:#003D3D;}
]]>
</style>
<g>
	<g>
		<path class="st1" d="M1.561,37.44c0,9.738,7.895,17.633,17.633,17.633c3.771,0,7.262-1.188,10.128-3.203
			c2.608,3.311,6.376,5.661,10.692,6.442l0.104-1.734l-22.57-21.724l23.51,15.812l1.881-35.09l1.881,35.09l12.226-7.084
			L45.76,56.578l0.109,1.816c1.732-0.266,3.382-0.783,4.91-1.516c2.847,1.973,6.301,3.131,10.027,3.131
			c9.738,0,17.633-7.894,17.633-17.632c0-4.466-1.663-8.542-4.401-11.648c0.406-1.137,0.64-2.357,0.64-3.634
			c0-5.973-4.842-10.814-10.814-10.814c-1.072,0-2.105,0.162-3.083,0.452C60.282,7.44,52.59,0.059,43.174,0.059
			c-9.739,0-17.633,7.894-17.633,17.633c0,1.174,0.117,2.321,0.336,3.431c-2.062-0.845-4.317-1.315-6.684-1.315
			C9.455,19.808,1.561,27.703,1.561,37.44z M28.772,28.415c1.025,0,1.15,1.594,0.12,1.594
			C27.866,30.009,27.742,28.415,28.772,28.415z M29.362,20.604c-1.025,0-1.15-1.594-0.119-1.594
			C30.269,19.011,30.393,20.604,29.362,20.604z M32.191,10.356c-1.15,0-1.289-1.786-0.135-1.786
			C33.207,8.57,33.346,10.356,32.191,10.356z M40.139,15.483c-0.618,0.701-1.895,0.505-2.173-0.431
			c-0.057-0.191-0.113-0.382-0.171-0.573c-0.187-0.629,0.352-1.483,1.089-1.263c0.177,0.053,0.353,0.106,0.528,0.159
			c0.451,0.136,0.815,0.376,0.977,0.843C40.537,14.65,40.44,15.14,40.139,15.483z M45.36,17.921c-1.204,0-1.349-1.869-0.141-1.869
			C46.422,16.052,46.568,17.921,45.36,17.921z M51.951,12.858c-1.345,0-1.507-2.089-0.157-2.089
			C53.139,10.77,53.302,12.858,51.951,12.858z M53.361,22.249c-1.327,0-1.488-2.061-0.155-2.061
			C54.533,20.188,54.693,22.249,53.361,22.249z M50.071,27.448c-1.361,0-1.527-2.115-0.159-2.115
			C51.274,25.333,51.439,27.448,50.071,27.448z M62.313,30.946c-1.628,0-1.825-2.528-0.19-2.528
			C63.749,28.418,63.947,30.946,62.313,30.946z M64.191,21.985c-1.593,0-1.785-2.473-0.186-2.473
			C65.597,19.512,65.79,21.985,64.191,21.985z M70.301,26.646c-1.539,0-1.726-2.391-0.18-2.391
			C71.66,24.255,71.847,26.646,70.301,26.646z M74.837,39.951c1.309,0,1.468,2.034,0.152,2.034
			C73.68,41.984,73.521,39.951,74.837,39.951z M70.368,50.942c0.404,0.083,0.703,0.245,1.005,0.524
			c0.42,0.387,0.478,1.043,0.093,1.479c-0.348,0.395-1.09,0.512-1.478,0.092c-0.278-0.301-0.499-0.567-0.585-0.977
			C69.277,51.463,69.678,50.8,70.368,50.942z M69.66,35.664c1.38,0,1.548,2.144,0.162,2.144
			C68.442,37.807,68.274,35.664,69.66,35.664z M65.437,41.416c1.238,0,1.388,1.924,0.145,1.924
			C64.343,43.34,64.192,41.416,65.437,41.416z M61.199,52.619c1.344,0,1.507,2.088,0.156,2.088
			C60.011,54.707,59.848,52.619,61.199,52.619z M52.884,54.127c-1.203,0-1.349-1.869-0.141-1.869
			C53.945,52.258,54.092,54.127,52.884,54.127z M56.54,37.279c-0.03-0.396,0.233-0.911,0.657-0.998
			c0.146-0.03,0.293-0.061,0.438-0.091c0.666-0.138,1.364,0.18,1.421,0.935c0.052,0.682-0.588,1.28-1.269,1.138l-0.453-0.095
			C56.905,38.077,56.573,37.723,56.54,37.279z M48.48,37.74c1.733,0,1.943,2.693,0.202,2.693
			C46.949,40.433,46.739,37.74,48.48,37.74z M42.555,7.796c-1.485,0-1.666-2.309-0.173-2.309
			C43.867,5.488,44.048,7.796,42.555,7.796z M37.553,24.806c0.08,0.216,0.1,0.456,0.032,0.692c-0.02,0.252-0.141,0.462-0.317,0.586
			c-0.268,0.33-0.635,0.571-1.111,0.482c-0.645-0.121-0.917-0.684-1.017-1.269C35.032,24.666,35.651,24,36.285,24h0.02
			c0.215,0,0.43,0.027,0.622,0.126c-0.004-0.014-0.009-0.092-0.014-0.105c0.002,0.001,0.006,0.019,0.009,0.021
			c0.098,0.06,0.186,0.141,0.268,0.219C37.359,24.403,37.491,24.596,37.553,24.806z M35.714,33.872
			c-0.005-0.008-0.009-0.015-0.013-0.023c-0.248-0.179-0.428-0.428-0.454-0.78c-0.046-0.605,0.422-1.146,1.025-1.193
			c1.19-0.091,1.555,1.479,0.684,2.038C36.644,34.276,35.965,34.364,35.714,33.872z M37.679,42.621c1.504,0,1.686,2.335,0.176,2.335
			C36.351,44.956,36.168,42.621,37.679,42.621z M32.022,34.448c1.733,0,1.943,2.693,0.202,2.693
			C30.492,37.142,30.281,34.448,32.022,34.448z M22.164,31.363c1.468,0,1.646,2.28,0.172,2.28
			C20.867,33.644,20.689,31.363,22.164,31.363z M31.117,51.373c1.132,0,1.27,1.759,0.132,1.759
			C30.117,53.132,29.98,51.373,31.117,51.373z M27.381,47.484c0.69,0,0.774,1.072,0.081,1.072
			C26.772,48.557,26.688,47.484,27.381,47.484z M21.846,47.959c-1.133,0-1.27-1.758-0.132-1.758
			C22.845,46.201,22.982,47.959,21.846,47.959z M20.754,51.126c1.451,0,1.626,2.253,0.17,2.253
			C19.473,53.379,19.297,51.126,20.754,51.126z M13.88,27.641c-1.609,0-1.805-2.5-0.188-2.5
			C15.302,25.141,15.496,27.641,13.88,27.641z M12.26,50.174c0.159-0.852,1.111-1.473,1.941-1.064
			c0.445,0.219,0.74,0.677,0.767,1.174c0.032,0.645-0.438,1.221-1.094,1.27c-0.191,0.016-0.388-0.029-0.568-0.111
			C12.654,51.455,12.141,50.806,12.26,50.174z M12.736,38.1c1.131-0.086,1.87,1.097,1.421,2.097
			c-0.058,0.128-0.115,0.257-0.173,0.385c-0.182,0.404-0.609,0.676-1.044,0.709c-0.606,0.047-1.058-0.326-1.294-0.852
			c-0.061-0.135-0.121-0.271-0.182-0.407C11.073,39.159,11.859,38.167,12.736,38.1z M9.483,32.98c1.203,0,1.349,1.869,0.141,1.869
			C8.422,34.849,8.275,32.98,9.483,32.98z"/>
		<polygon class="st2" points="17.548,34.854 41.058,50.666 42.938,15.576 44.819,50.666 57.045,43.582 45.76,56.578 45.869,58.318 
			47.171,80 38.707,80 40.014,58.236 40.118,56.54 		"/>
		<path class="st0" d="M64.191,21.985c-1.593,0-1.785-2.473-0.186-2.473C65.597,19.512,65.79,21.985,64.191,21.985z"/>
		<path class="st0" d="M70.301,26.646c-1.539,0-1.726-2.391-0.18-2.391C71.66,24.255,71.847,26.646,70.301,26.646z"/>
		<path class="st0" d="M62.313,30.946c-1.628,0-1.825-2.528-0.19-2.528C63.749,28.418,63.947,30.946,62.313,30.946z"/>
		<path class="st0" d="M69.66,35.664c1.38,0,1.548,2.144,0.162,2.144C68.442,37.807,68.274,35.664,69.66,35.664z"/>
		<path class="st0" d="M74.837,39.951c1.309,0,1.468,2.034,0.152,2.034C73.68,41.984,73.521,39.951,74.837,39.951z"/>
		<path class="st0" d="M70.368,50.942c0.404,0.083,0.703,0.245,1.005,0.524c0.42,0.387,0.478,1.043,0.093,1.479
			c-0.348,0.395-1.09,0.512-1.478,0.092c-0.278-0.301-0.499-0.567-0.585-0.977C69.277,51.463,69.678,50.8,70.368,50.942z"/>
		<path class="st0" d="M61.199,52.619c1.344,0,1.507,2.088,0.156,2.088C60.011,54.707,59.848,52.619,61.199,52.619z"/>
		<path class="st0" d="M65.437,41.416c1.238,0,1.388,1.924,0.145,1.924C64.343,43.34,64.192,41.416,65.437,41.416z"/>
		<path class="st0" d="M52.884,54.127c-1.203,0-1.349-1.869-0.141-1.869C53.945,52.258,54.092,54.127,52.884,54.127z"/>
		<path class="st0" d="M57.197,36.281c0.146-0.03,0.293-0.061,0.438-0.091c0.666-0.138,1.364,0.18,1.421,0.935
			c0.052,0.682-0.588,1.28-1.269,1.138l-0.453-0.095c-0.43-0.09-0.762-0.444-0.795-0.888C56.51,36.882,56.773,36.368,57.197,36.281z
			"/>
		<path class="st0" d="M48.48,37.74c1.733,0,1.943,2.693,0.202,2.693C46.949,40.433,46.739,37.74,48.48,37.74z"/>
		<path class="st0" d="M49.912,25.333c1.362,0,1.527,2.115,0.159,2.115C48.71,27.448,48.544,25.333,49.912,25.333z"/>
		<path class="st0" d="M53.361,22.249c-1.327,0-1.488-2.061-0.155-2.061C54.533,20.188,54.693,22.249,53.361,22.249z"/>
		<path class="st0" d="M51.951,12.858c-1.345,0-1.507-2.089-0.157-2.089C53.139,10.77,53.302,12.858,51.951,12.858z"/>
		<path class="st0" d="M45.36,17.921c-1.204,0-1.349-1.869-0.141-1.869C46.422,16.052,46.568,17.921,45.36,17.921z"/>
		<path class="st0" d="M42.382,5.488c1.485,0,1.666,2.309,0.173,2.309C41.069,7.796,40.889,5.488,42.382,5.488z"/>
		<path class="st0" d="M37.966,15.052c-0.057-0.191-0.113-0.382-0.171-0.573c-0.187-0.629,0.352-1.483,1.089-1.263
			c0.177,0.053,0.353,0.106,0.528,0.159c0.451,0.136,0.815,0.376,0.977,0.843c0.148,0.432,0.052,0.921-0.25,1.265
			C39.521,16.184,38.244,15.988,37.966,15.052z"/>
		<path class="st0" d="M32.191,10.356c-1.15,0-1.289-1.786-0.135-1.786C33.207,8.57,33.346,10.356,32.191,10.356z"/>
		<path class="st0" d="M29.362,20.604c-1.025,0-1.15-1.594-0.119-1.594C30.269,19.011,30.393,20.604,29.362,20.604z"/>
		<path class="st0" d="M37.585,25.487c-0.02,0.252-0.141,0.45-0.317,0.575c-0.268,0.33-0.635,0.548-1.111,0.459
			c-0.645-0.121-0.917-0.637-1.017-1.222C35.032,24.666,35.651,24,36.285,24h0.02c0.215,0,0.43,0.027,0.622,0.126
			c-0.004-0.014-0.009-0.044-0.014-0.059c0.002,0.001,0.006-0.005,0.009-0.003c0.098,0.06,0.186,0.129,0.268,0.207
			c0.17,0.143,0.302,0.32,0.363,0.531C37.633,25.019,37.652,25.25,37.585,25.487z"/>
		<path class="st0" d="M37.679,42.621c1.504,0,1.686,2.335,0.176,2.335C36.351,44.956,36.168,42.621,37.679,42.621z"/>
		<path class="st0" d="M32.022,34.448c1.733,0,1.943,2.693,0.202,2.693C30.492,37.142,30.281,34.448,32.022,34.448z"/>
		<path class="st0" d="M35.714,33.872c-0.005-0.008-0.009-0.015-0.013-0.023c-0.248-0.179-0.428-0.428-0.454-0.78
			c-0.046-0.605,0.422-1.146,1.025-1.193c1.19-0.091,1.555,1.479,0.684,2.038C36.644,34.276,35.965,34.364,35.714,33.872z"/>
		<path class="st0" d="M28.893,30.009c-1.026,0-1.15-1.594-0.12-1.594C29.798,28.415,29.923,30.009,28.893,30.009z"/>
		<path class="st0" d="M22.164,31.363c1.468,0,1.646,2.28,0.172,2.28C20.867,33.644,20.689,31.363,22.164,31.363z"/>
		<path class="st0" d="M13.88,27.641c-1.609,0-1.805-2.5-0.188-2.5C15.302,25.141,15.496,27.641,13.88,27.641z"/>
		<path class="st0" d="M9.483,32.98c1.203,0,1.349,1.869,0.141,1.869C8.422,34.849,8.275,32.98,9.483,32.98z"/>
		<path class="st0" d="M14.201,49.109c0.445,0.219,0.74,0.677,0.767,1.174c0.032,0.645-0.438,1.221-1.094,1.27
			c-0.191,0.016-0.388-0.029-0.568-0.111c-0.651,0.014-1.165-0.636-1.046-1.268C12.419,49.322,13.371,48.701,14.201,49.109z"/>
		<path class="st0" d="M12.736,38.1c1.131-0.086,1.87,1.097,1.421,2.097c-0.058,0.128-0.115,0.257-0.173,0.385
			c-0.182,0.404-0.609,0.676-1.044,0.709c-0.606,0.047-1.058-0.326-1.294-0.852c-0.061-0.135-0.121-0.271-0.182-0.407
			C11.073,39.159,11.859,38.167,12.736,38.1z"/>
		<path class="st0" d="M21.714,46.201c1.131,0,1.269,1.758,0.132,1.758C20.713,47.959,20.576,46.201,21.714,46.201z"/>
		<path class="st0" d="M20.754,51.126c1.451,0,1.626,2.253,0.17,2.253C19.473,53.379,19.297,51.126,20.754,51.126z"/>
		<path class="st0" d="M27.381,47.484c0.69,0,0.774,1.072,0.081,1.072C26.772,48.557,26.688,47.484,27.381,47.484z"/>
		<path class="st0" d="M31.117,51.373c1.132,0,1.27,1.759,0.132,1.759C30.117,53.132,29.98,51.373,31.117,51.373z"/>
	</g>
</g>
</svg>
