<?xml version="1.0" encoding="utf-8"?>
<!-- Generator: Adobe Illustrator 16.0.3, SVG Export Plug-In . SVG Version: 6.00 Build 0)  -->
<!DOCTYPE svg PUBLIC "-//W3C//DTD SVG 1.1//EN" "http://www.w3.org/Graphics/SVG/1.1/DTD/svg11.dtd">
<svg version="1.1" id="Layer_1" xmlns="http://www.w3.org/2000/svg" xmlns:xlink="http://www.w3.org/1999/xlink" x="0px" y="0px"
	 width="80px" height="80px" viewBox="0 0 80 80" style="enable-background:new 0 0 80 80;" xml:space="preserve">
<style type="text/css">
<![CDATA[
	.st0{fill:#B89E6C;}
	.st1{fill:#29ABE2;}
	.st2{fill:#008288;}
]]>
</style>
<g>
	<g>
		<path class="st2" d="M30.864,54.698c6.73-0.021,13.46-0.044,20.191-0.065c4.916-0.016,10.359-0.232,13.904-3.641
			c3.343-3.215,3.939-8.274,4.193-12.905c0.404-7.375,0.438-14.771,0.101-22.15c-0.216-4.717-0.815-9.929-4.341-13.072
			c-4.23-3.773-10.641-3.119-15.75-1.969c0.091,0.01,0.181,0.02,0.271,0.03c-2.525,0.682-5.055,0.811-7.652,0.769
			c-3.032-0.048-6.056-0.311-9.087-0.333c-5.819-0.043-12.181,1.097-15.979,5.505c-3.053,3.542-3.826,8.479-4.078,13.148
			c-0.374,6.934,0.131,13.915,1.499,20.723c0.943,4.695,2.624,9.754,6.747,12.191C23.829,54.672,27.441,54.71,30.864,54.698z"/>
	</g>
	<path class="st0" d="M58.65,14.859c-1.586,1.378-2.582,3.767-3.549,5.605c-0.977,1.854-1.881,3.746-2.715,5.668
		c-1.756,4.043-3.242,8.19-4.391,12.448c-0.732,2.723-1.348,5.494-1.822,8.289c-0.093-0.954-0.195-1.907-0.322-2.86
		c-0.371-2.792-0.855-5.548-1.552-8.278c-0.271-1.066-1.147-6.156-3.254-4.46c-0.9,0.726-0.578,1.776-0.44,2.78
		c0.17,1.25,0.386,2.492,0.539,3.745c0.311,2.518,0.605,5.036,0.77,7.568c0.163,2.536,0.26,5.085,0.254,7.627
		c-0.001,0.354-0.014,0.712-0.027,1.071C42.07,54.066,42,54.07,41.93,54.077c-0.002-0.011-0.004-0.021-0.007-0.032
		c-0.853-3.693-2.321-7.242-4.128-10.566c-0.214-0.395-0.891-0.127-0.736,0.312c1.218,3.438,2.076,6.96,2.729,10.547
		c-0.14,0.021-0.28,0.043-0.422,0.07c-0.009,0.002-0.016,0.005-0.025,0.007c-0.472-1.246-0.993-2.475-1.573-3.671
		c-1.183-2.443-2.666-5.46-4.881-7.12c-0.959-0.719-1.939,0.466-1.795,1.38c0.198,1.261,0.889,2.481,1.334,3.679
		c0.464,1.241,0.984,2.463,1.436,3.709c0.91,2.514,1.734,5.06,2.353,7.66c0.608,2.561,1.114,5.139,1.367,7.76
		c0.259,2.68,0.068,5.352,0.239,8.021c0.016,0.243,0.062,0.479,0.134,0.702c-0.255,1.063,0.333,2.253,1.535,2.701
		c2.587,0.971,5.558,1.08,8.125-0.002c0.435-0.185,0.812-0.455,1.08-0.793c0.318,0.05,0.662-0.098,0.734-0.467
		c0.743-3.894,0.118-7.992,0.068-11.933c-0.055-4.192,0.139-8.392,0.618-12.558c0.938-8.121,2.896-16.104,6.048-23.657
		c0.879-2.106,1.859-4.171,2.918-6.194c1.095-2.095,2.822-4.233,3.43-6.523C63.127,14.776,60.346,13.389,58.65,14.859z"/>
	<g>
		<path class="st1" d="M37.335,9.938c0.07,0.166,0.14,0.331,0.21,0.497c0.13,0.242,0.309,0.437,0.536,0.584
			c0.129,0.129,0.283,0.218,0.459,0.267c0.248,0.131,0.515,0.19,0.802,0.18c0.369-0.017,0.723-0.112,1.05-0.284
			c0.243-0.131,0.437-0.31,0.584-0.536c0.184-0.201,0.309-0.437,0.373-0.708c0.017-0.123,0.031-0.245,0.051-0.368
			c0.102-0.378,0.102-0.757,0-1.135c-0.104-0.362-0.284-0.676-0.549-0.942c-0.417-0.384-0.933-0.625-1.511-0.625
			c-0.547,0-1.123,0.238-1.51,0.625c-0.264,0.266-0.448,0.58-0.549,0.942c-0.102,0.378-0.102,0.757,0,1.135
			C37.301,9.693,37.318,9.816,37.335,9.938z"/>
		<path class="st1" d="M35.433,17.024c-0.02-0.442-0.291-0.803-0.715-0.938c-0.017-0.005-0.033-0.011-0.05-0.016
			c-0.385-0.124-0.937,0.075-1.118,0.455c-0.062,0.129-0.122,0.251-0.142,0.395c-0.025,0.186,0.013,0.335,0.094,0.505
			c0.016,0.033,0.032,0.066,0.047,0.1c0.09,0.188,0.29,0.328,0.473,0.405c0.197,0.083,0.436,0.117,0.645,0.05
			c0.018-0.008,0.034-0.013,0.051-0.018C35.112,17.836,35.452,17.46,35.433,17.024z"/>
		<path class="st1" d="M42.016,24.123c-0.326,0.033-0.636,0.06-0.928,0.233c-0.305,0.182-0.484,0.454-0.648,0.753
			c-0.151,0.276-0.206,0.57-0.164,0.882c0.039,0.29,0.158,0.59,0.38,0.794c0.463,0.425,1.117,0.521,1.676,0.216
			c0.297-0.163,0.58-0.336,0.753-0.649c0.138-0.25,0.187-0.49,0.218-0.774c0.006-0.051,0.012-0.102,0.016-0.153
			c0.031-0.299-0.164-0.722-0.381-0.921C42.697,24.285,42.354,24.088,42.016,24.123z"/>
		<path class="st1" d="M31.845,19.478c-0.366-0.615-0.926-0.844-1.476-0.813c-0.551-0.032-1.113,0.196-1.48,0.813
			c-0.018,0.029-0.035,0.059-0.052,0.088c-0.689,1.159,0.195,2.667,1.53,2.667s2.219-1.508,1.53-2.667
			C31.88,19.537,31.863,19.507,31.845,19.478z"/>
		<path class="st1" d="M31.131,10.113c-0.303,0-0.621,0.132-0.835,0.346C30.09,10.664,29.937,11,29.95,11.295
			c0.028,0.64,0.519,1.181,1.181,1.181c0.303,0,0.621-0.132,0.835-0.346c0.205-0.205,0.359-0.541,0.346-0.835
			C32.284,10.654,31.793,10.113,31.131,10.113z"/>
		<path class="st1" d="M21.135,28.857c-0.562,0-1.152,0.245-1.55,0.642c-0.214,0.198-0.365,0.434-0.453,0.705
			c-0.138,0.261-0.2,0.543-0.189,0.845c0.025,0.567,0.212,1.154,0.642,1.549c0.429,0.394,0.956,0.642,1.55,0.642
			c0.562,0,1.152-0.245,1.55-0.642c0.213-0.198,0.364-0.434,0.453-0.705c0.137-0.261,0.2-0.542,0.188-0.844
			c-0.025-0.567-0.211-1.155-0.642-1.55C22.255,29.106,21.729,28.857,21.135,28.857z"/>
		<path class="st1" d="M30.868,31.863c-0.638-0.085-1.226,0.41-1.226,1.063c0,0.603,0.496,1.056,1.082,1.082
			c0.715,0.032,1.208-0.716,1.043-1.37C31.659,32.208,31.293,31.92,30.868,31.863z"/>
		<path class="st1" d="M24.639,9.157c0.394,0,0.809-0.171,1.087-0.451c0.267-0.267,0.468-0.704,0.45-1.087
			c-0.018-0.398-0.148-0.811-0.45-1.087c-0.301-0.276-0.671-0.451-1.087-0.451c-0.395,0-0.809,0.172-1.087,0.451
			c-0.267,0.267-0.468,0.705-0.451,1.087c0.018,0.397,0.148,0.811,0.451,1.087C23.852,8.982,24.222,9.157,24.639,9.157z"/>
		<path class="st1" d="M35.062,7.513C35.53,7.642,36.061,7.51,36.4,7.16c0.012-0.012,0.023-0.024,0.035-0.037
			c0.383-0.395,0.495-0.978,0.281-1.484c-0.094-0.223-0.227-0.395-0.418-0.543c-0.214-0.166-0.543-0.328-0.823-0.292
			c-0.016,0.002-0.032,0.004-0.047,0.006c-0.249,0.001-0.48,0.063-0.695,0.188c-0.207,0.122-0.371,0.287-0.493,0.494
			c-0.224,0.382-0.239,0.824-0.069,1.224C34.335,7.106,34.646,7.399,35.062,7.513z"/>
		<path class="st1" d="M41.161,21.239c0.142-0.513-0.007-1.074-0.384-1.45c-0.375-0.376-0.938-0.524-1.449-0.383
			c-0.5,0.138-0.905,0.54-1.041,1.041c-0.021,0.076-0.041,0.151-0.062,0.227c-0.271,1,0.668,1.939,1.668,1.668
			c0.076-0.021,0.151-0.042,0.227-0.062C40.621,22.144,41.023,21.738,41.161,21.239z"/>
		<path class="st1" d="M47.948,15.651c-0.234-0.4-0.552-0.718-0.952-0.954c-0.219-0.127-0.449-0.216-0.688-0.276
			c0.006-0.029,0.012-0.058,0.019-0.086c0.089-0.414,0.016-0.876-0.312-1.176c-0.236-0.217-0.527-0.354-0.854-0.354
			c-0.31,0-0.636,0.134-0.854,0.354c-0.318,0.318-0.402,0.747-0.311,1.176c0.014,0.06,0.025,0.12,0.039,0.18
			c0.016,0.072,0.059,0.135,0.094,0.201c-0.393,0.244-0.729,0.582-0.951,0.961c-0.492,0.842-0.492,1.912,0,2.754
			c0.486,0.829,1.396,1.351,2.355,1.351c0.992,0,1.83-0.532,2.355-1.351c0.02-0.032,0.039-0.063,0.06-0.097
			C48.455,17.542,48.414,16.445,47.948,15.651z"/>
		<g>
			<path class="st1" d="M24.742,23.801c0.089-0.072,0.187-0.136,0.268-0.217c0.342-0.319,0.583-0.694,0.725-1.13
				c0.221-0.418,0.32-0.869,0.301-1.352c-0.04-0.907-0.338-1.849-1.026-2.481c-0.686-0.629-1.531-1.026-2.482-1.026
				c-0.899,0-1.844,0.391-2.48,1.026c-0.342,0.319-0.584,0.694-0.727,1.13c-0.219,0.418-0.318,0.869-0.302,1.351
				c0.041,0.907,0.339,1.85,1.027,2.481c0.601,0.549,1.326,0.905,2.132,0.991c-0.088,0.147-0.16,0.31-0.208,0.487
				c-0.036,0.129-0.069,0.256-0.105,0.384c-0.354,1.306,0.874,2.535,2.18,2.179c0.128-0.033,0.255-0.069,0.384-0.103
				c1.455-0.394,1.944-2.28,0.883-3.341C25.141,24.011,24.945,23.894,24.742,23.801z"/>
			<path class="st1" d="M18.747,23.578c-0.445,0-0.914,0.194-1.229,0.509c-0.302,0.301-0.529,0.796-0.509,1.229
				c0.019,0.45,0.167,0.916,0.509,1.229c0.34,0.313,0.758,0.509,1.229,0.509c0.446,0,0.914-0.194,1.229-0.509
				c0.301-0.301,0.528-0.796,0.509-1.229c-0.02-0.45-0.167-0.916-0.509-1.229C19.636,23.775,19.218,23.578,18.747,23.578z"/>
		</g>
		<path class="st1" d="M26.131,35.866c0.328-0.09,0.584-0.308,0.766-0.588c0.188-0.291,0.204-0.659,0.129-0.987
			c-0.09-0.396-0.481-0.826-0.895-0.895c-0.306-0.051-0.545-0.06-0.833,0.062c-0.216,0.091-0.372,0.215-0.512,0.397
			c-0.465,0.601-0.303,1.494,0.359,1.882C25.431,35.905,25.811,35.954,26.131,35.866z"/>
		<path class="st1" d="M20.438,37.577c-0.41,0-0.84,0.178-1.13,0.468c-0.277,0.277-0.486,0.732-0.468,1.13
			c0.019,0.413,0.154,0.842,0.468,1.13c0.313,0.287,0.697,0.468,1.13,0.468c0.41,0,0.84-0.178,1.13-0.468
			c0.277-0.277,0.486-0.732,0.468-1.13c-0.019-0.413-0.154-0.842-0.468-1.13C21.254,37.758,20.871,37.577,20.438,37.577z"/>
		<path class="st1" d="M19.428,42.622c-0.494,0-0.967,0.435-0.945,0.944c0.023,0.512,0.416,0.942,0.945,0.942
			c0.494,0,0.967-0.435,0.944-0.942C20.35,43.055,19.958,42.622,19.428,42.622z"/>
		<path class="st1" d="M31.707,3.431c-0.37-0.155-0.875-0.181-1.219,0.069c-0.015,0.01-0.029,0.021-0.043,0.032
			c-0.281,0.205-0.544,0.455-0.625,0.813c-0.069,0.304-0.053,0.597,0.068,0.886c0.255,0.603,0.952,0.987,1.605,0.787
			c0.017-0.005,0.033-0.01,0.05-0.015c0.784-0.24,1.211-1.081,0.888-1.848C32.286,3.813,32.049,3.576,31.707,3.431z"/>
		<path class="st1" d="M56.534,7.804c-0.009-0.007-0.019-0.014-0.026-0.021c-0.135-0.104-0.27-0.208-0.404-0.312
			c-0.158-0.067-0.315-0.134-0.477-0.201c-0.266-0.083-0.529-0.095-0.796-0.036c-0.181,0-0.349,0.046-0.504,0.136
			c-0.169,0.047-0.315,0.133-0.44,0.257c-0.148,0.088-0.269,0.208-0.357,0.358c-0.122,0.125-0.209,0.271-0.256,0.44
			c-0.125,0.237-0.184,0.494-0.172,0.769c0.017,0.344,0.098,0.707,0.271,1.007c0.104,0.135,0.208,0.27,0.313,0.404
			c0.135,0.104,0.271,0.208,0.403,0.313c0.159,0.067,0.318,0.134,0.478,0.201c0.267,0.083,0.531,0.095,0.795,0.036
			c0.183,0,0.351-0.046,0.506-0.136c0.246-0.081,0.462-0.218,0.643-0.413c0.01-0.007,0.02-0.014,0.026-0.021
			c0.19-0.178,0.325-0.389,0.405-0.633c0.123-0.234,0.181-0.486,0.168-0.757C57.088,8.705,56.932,8.127,56.534,7.804z"/>
		<path class="st1" d="M26.661,38.901c-0.316-0.186-0.671-0.161-0.989,0c-0.12,0.061-0.232,0.159-0.321,0.275
			c-0.177,0.137-0.302,0.35-0.292,0.571c0.01,0.229,0.12,0.445,0.298,0.581c0.088,0.111,0.196,0.207,0.314,0.266
			c0.318,0.161,0.673,0.186,0.989,0c0.298-0.175,0.485-0.501,0.485-0.847C27.146,39.402,26.959,39.075,26.661,38.901z"/>
		<path class="st1" d="M37.435,23.542c-0.474-0.277-1.058-0.268-1.532,0c-0.048,0.027-0.096,0.054-0.144,0.081
			c-0.924,0.522-0.924,1.936,0,2.458c0.048,0.027,0.096,0.054,0.144,0.081c0.474,0.268,1.058,0.277,1.532,0
			c0.461-0.27,0.751-0.775,0.751-1.31S37.896,23.813,37.435,23.542z"/>
		<path class="st1" d="M42.016,6.758c0.354,0,0.729-0.154,0.979-0.405c0.239-0.24,0.42-0.634,0.403-0.978
			c-0.032-0.75-0.606-1.383-1.383-1.383c-0.354,0-0.728,0.154-0.979,0.405c-0.239,0.24-0.42,0.633-0.405,0.978
			C40.666,6.124,41.24,6.758,42.016,6.758z"/>
		<path class="st1" d="M16.354,15.783c-0.039-0.004-0.079-0.007-0.118-0.011c-1.363-0.129-1.366,2.25,0,2.121
			c0.04-0.003,0.079-0.008,0.118-0.011C17.702,17.755,17.705,15.911,16.354,15.783z"/>
	</g>
</g>
</svg>
