<?xml version="1.0" encoding="utf-8"?>
<!-- Generator: Adobe Illustrator 16.0.3, SVG Export Plug-In . SVG Version: 6.00 Build 0)  -->
<!DOCTYPE svg PUBLIC "-//W3C//DTD SVG 1.1//EN" "http://www.w3.org/Graphics/SVG/1.1/DTD/svg11.dtd">
<svg version="1.1" id="Layer_1" xmlns="http://www.w3.org/2000/svg" xmlns:xlink="http://www.w3.org/1999/xlink" x="0px" y="0px"
	 width="40px" height="40px" viewBox="0 0 40 40" style="enable-background:new 0 0 40 40;" xml:space="preserve">
<style type="text/css">
<![CDATA[
	.st0{fill:#F4C500;}
	.st1{fill:#DBA100;}
]]>
</style>
<g>
	<path class="st1" d="M33.563,23.557c0-0.102,0.012-0.199,0.026-0.297c-0.122,0.035-0.25,0.057-0.386,0.057
		c-0.639,0-1.156-0.41-1.156-0.918c0-0.506,0.518-0.916,1.156-0.916c0.492,0,0.908,0.244,1.076,0.586
		c0.212-0.15,0.419-0.24,0.72-0.258v-7.86c0,3.512-6.711,6.356-14.99,6.356c-8.278,0-14.989-2.94-14.989-6.451
		c0-0.018,0.004-0.144,0.004-0.144H5v6.022c0.027-0.002,0.052-0.008,0.08-0.008c0.837,0,1.516,0.768,1.516,1.714
		c0,0.947-0.679,1.717-1.516,1.717c-0.028,0-0.053-0.008-0.08-0.01v2.863h0.042c0,3.6,6.707,6.395,14.979,6.395
		c3.662,0,7.014-0.549,9.615-1.469c-0.137-0.141-0.223-0.32-0.223-0.523c0-0.439,0.395-0.795,0.878-0.795
		c0.45,0,0.815,0.307,0.867,0.703C33.546,29.203,35,27.721,35,26.086v-0.785C34.1,25.252,33.563,24.494,33.563,23.557z M9.707,28.98
		c-0.705,0-1.275-0.625-1.275-1.396s0.571-1.395,1.275-1.395c0.705,0,1.275,0.623,1.275,1.395S10.413,28.98,9.707,28.98z
		 M11.82,23.557c-0.461,0-0.836-0.393-0.836-0.879c0-0.484,0.375-0.877,0.836-0.877c0.464,0,0.839,0.393,0.839,0.877
		C12.66,23.164,12.285,23.557,11.82,23.557z M20.359,30.098c-1.125,0-2.035-0.875-2.035-1.955s0.91-1.955,2.035-1.955
		c1.123,0,2.035,0.875,2.035,1.955S21.482,30.098,20.359,30.098z M21.637,25.629c-0.42,0-0.76-0.303-0.76-0.678
		c0-0.373,0.34-0.678,0.76-0.678c0.418,0,0.758,0.305,0.758,0.678C22.395,25.326,22.055,25.629,21.637,25.629z"/>
	<path class="st0" d="M20.01,20.307c8.279,0,14.99-2.845,14.99-6.356c0-0.017-0.003-0.032-0.003-0.05
		c-0.063-3.487-6.747-6.308-14.987-6.308c-8.238,0-14.924,2.82-14.986,6.308c0,0.018-0.002,0.033-0.002,0.05
		C5.021,17.461,11.732,20.307,20.01,20.307z M30.73,12.505c0.242,0,0.438,0.17,0.438,0.379s-0.196,0.38-0.438,0.38
		s-0.438-0.171-0.438-0.38S30.488,12.505,30.73,12.505z M23.451,13.952c1.002,0,1.814,0.766,1.814,1.711
		c0,0.943-0.813,1.71-1.814,1.71c-1.004,0-1.814-0.767-1.814-1.71C21.637,14.716,22.447,13.952,23.451,13.952z M17.646,11.748
		c0.375,0,0.678,0.339,0.678,0.758s-0.305,0.759-0.678,0.759c-0.375,0-0.679-0.34-0.679-0.759S17.271,11.748,17.646,11.748z
		 M9.867,16.375c0.617,0,1.117,0.445,1.117,0.997c0,0.551-0.5,0.998-1.117,0.998S8.75,17.923,8.75,17.373
		C8.75,16.821,9.25,16.375,9.867,16.375z"/>
</g>
</svg>
