<?xml version="1.0" encoding="utf-8"?>
<!-- Generator: Adobe Illustrator 16.0.3, SVG Export Plug-In . SVG Version: 6.00 Build 0)  -->
<!DOCTYPE svg PUBLIC "-//W3C//DTD SVG 1.1//EN" "http://www.w3.org/Graphics/SVG/1.1/DTD/svg11.dtd">
<svg version="1.1" id="Layer_1" xmlns="http://www.w3.org/2000/svg" xmlns:xlink="http://www.w3.org/1999/xlink" x="0px" y="0px"
	 width="136.083px" height="114.067px" viewBox="0 0 136.083 114.067" style="enable-background:new 0 0 136.083 114.067;"
	 xml:space="preserve">
<style type="text/css">
<![CDATA[
	.st0{fill-rule:evenodd;clip-rule:evenodd;fill:#DCDBDD;}
	.st1{fill-rule:evenodd;clip-rule:evenodd;fill:#10B9E8;}
	.st2{fill-rule:evenodd;clip-rule:evenodd;fill:#E2361C;}
	.st3{fill-rule:evenodd;clip-rule:evenodd;fill:#E31F1E;}
	.st4{fill-rule:evenodd;clip-rule:evenodd;fill:#E5301A;}
	.st5{fill-rule:evenodd;clip-rule:evenodd;fill:#1D1D1B;}
	.st6{fill-rule:evenodd;clip-rule:evenodd;fill:#8C2725;}
	.st7{fill-rule:evenodd;clip-rule:evenodd;fill:#F6ECE2;}
	.st8{fill-rule:evenodd;clip-rule:evenodd;fill:#F8B429;}
	.st9{fill-rule:evenodd;clip-rule:evenodd;fill:#F9BE7F;}
	.st10{fill-rule:evenodd;clip-rule:evenodd;fill:#FFFFFF;}
	.st11{fill-rule:evenodd;clip-rule:evenodd;fill:#00B2E1;}
	.st12{fill-rule:evenodd;clip-rule:evenodd;fill:#D21D20;}
]]>
</style>
<g>
	<polygon class="st1" points="11.439,32.688 11.35,32.688 11.32,32.569 10.993,32.331 10.666,32.183 10.874,31.826 11.171,31.528 
		11.826,30.963 13.878,30.576 12.628,31.587 11.439,32.688 	"/>
	<polygon class="st1" points="11.35,31.052 10.785,31.558 10.338,32.153 10.16,32.212 10.011,32.183 10.071,31.855 10.189,31.587 
		10.546,31.052 11.35,30.993 11.35,31.052 	"/>
	<path class="st5" d="M69.23,102.499l3.452,0.404L76,103.53l3.363,0.674l3.362,0.492l3.184,0.18l3.229-0.135l3.139-0.537
		l1.479-0.449l1.39-0.537l1.884-0.809l1.838-0.852l1.749-1.031l1.614-1.301l-0.225-0.762l0.135-2.6l0.583-2.422l0.852-2.332
		l1.076-2.197l2.466-4.348l1.211-2.197l1.121-2.242l2.69-0.359l2.556-0.672l2.511-0.896l2.332-1.211l1.703-1.076l1.659-1.301
		l0.718-0.717l0.628-0.809l0.493-0.852l0.269-0.986l0.045-0.896l-0.224-0.941l-0.583-1.793l-0.225-0.896l-0.045-0.854l0.27-0.852
		l0.628-0.852l2.331-1.793l2.332-1.84l1.031-1.031l0.852-1.121l0.628-1.299l0.313-1.391l-0.224-1.031l-0.404-0.986l-0.538-0.896
		l-0.672-0.896l-1.391-1.66l-1.3-1.748l-0.358-0.807l-0.18-0.986l0.045-0.897l0.179-0.403l0.314-0.359l2.376,0.538l1.121,0.404
		l1.076,0.538l1.031,0.627l0.941,0.762l0.853,0.854l0.852,0.941l-0.135-2.152l-0.448-2.063l-0.762-1.973l-0.986-1.883l-0.628-0.896
		l-0.808-0.717l-0.807-0.628l-0.896-0.494l-0.987-0.358l-1.031-0.224l-1.076-0.09l-1.12,0.045l-1.301,0.134l-1.255,0.314
		l-2.332,0.941l-2.376,0.896l-1.211,0.314l-1.301,0.09l-0.403-1.569l-0.358-0.763l-0.404-0.717l-0.493-0.673l-0.582-0.538
		l-0.673-0.448l-0.808-0.269l-4.035-0.448l-3.901-0.762l-2.824-0.807L99.361,33l-2.734-1.031l-2.69-1.21l-0.986-0.448l-1.031-0.538
		l-0.18-0.404l-0.045-0.403v-0.987l-0.224-0.538l-0.449-0.449l-1.075-0.627l-0.584-0.314l-0.313-0.448l-0.224-0.538l-0.045-0.628
		l-0.225-1.21l-0.225-0.538l-0.403-0.448l-2.018-0.897l-0.941-0.538l-0.896-0.717l-0.27-1.659l0.313-1.749l0.135-0.897l-0.045-0.941
		l-0.044-0.448l-0.135-0.359l-0.538-0.583l-1.391-0.807l-0.807-1.076l-0.628-1.21L80.26,9.102l-0.27-1.345l-0.313-2.825l-0.27-2.78
		V1.838l-0.269-0.18l-2.332-0.807l-2.466-0.493l-2.556-0.314L69.23,0l-3.094,0.224l-1.614,0.583l-1.524,0.672l-3.004,1.659
		l-2.87,1.884l-2.825,2.063l-2.242,0.448l-2.152,0.583l-0.673,0.269l-0.448,0.449L48.47,9.371l-0.224,0.628l-0.179,1.435l-0.09,1.39
		l0.135,2.511l0.045,1.211v1.21l-0.135,0.314l-0.224,0.224l-0.628,0.134l-1.255,0.045l-1.255,0.135l-0.583,0.179l-0.538,0.224
		l-0.449,0.403l-0.359,0.538l-0.134,1.031l0.045,0.539l0.224,0.493l0.538,0.762l0.672,0.583l0.717,0.493l0.808,0.404l1.749,0.448
		l1.883,0.224l0.045-0.045l0.044-0.044l-0.762-0.359l-0.717-0.493l-0.179-0.359l0.044-0.403l1.524,0.313l1.615,0.135l1.569-0.224
		l0.718-0.269l0.717-0.359l1.3-0.941h0.045v0.135l-0.269,0.852l-0.045,0.942l0.179,0.896l0.314,0.897l0.449,0.762l0.493,0.672
		l-1.345,0.583l-1.3,0.314l-1.883,0.538l-1.973,0.269l-4.081,0.225l-0.672,0.359l-0.539,0.538l-0.403,0.627l-0.358,0.672
		l-0.583,1.928l-0.314,1.973l-0.089,2.063l0.134,2.018l0.269,2.018l0.493,2.018l0.583,1.838l0.762,1.794l-0.852,1.928l-0.314,0.986
		l-0.224,1.076l-3.184-1.211l-3.273-0.986l-1.525-0.225l-0.807-0.09l-0.718-0.18L33.18,48.2l-0.986-0.09l-9.551-15.155
		l-9.595-15.021l-1.166-1.614l-1.345-1.524l-1.39-1.479l-1.524-1.345L4.349,9.55L1.076,7.443L0.448,7.084H0.135l-0.09,0.044L0,7.354
		v0.089v0.045l0.135,2.511l0.313,2.511l0.449,2.466l0.583,2.376l0.718,2.332l0.852,2.287l1.076,2.197l1.21,2.152l7.802,12.465
		l3.856,6.322l3.767,6.367l-2.376,1.705l-2.152,1.928l-1.928,2.107l-1.659,2.285l-1.435,2.467l-1.166,2.557l-0.942,2.689
		l-0.627,2.689L8.026,73.31l-0.179,1.705v1.703v2.377l0.314,2.242l0.807,4.393l0.852,3.094l1.076,2.959l1.255,2.871l1.435,2.779
		l1.704,2.691l1.928,2.555l2.107,2.422l2.332,2.242l2.511,2.063l2.601,1.793l2.735,1.568l2.825,1.256l3.722,0.045l3.767-0.045
		l3.811-0.18l3.722-0.447l3.587-0.762l1.749-0.539l1.704-0.672l1.569-0.719l1.524-0.896l1.479-1.031l1.39-1.166l0.852-0.09
		l0.852-0.357l0.718-0.539l0.583-0.672l0.269-0.941l-0.045-0.449l-0.179-0.492l0.807-1.66l2.107-0.045l2.152,0.09L69.23,102.499
		L69.23,102.499z M69.23,75.147l1.345,1.031l1.166,1.121l1.031,1.301l0.853,1.48l-2.422,3.9l-1.076,2.018l-0.896,2.107l-0.448,1.658
		l-0.852,0.225l0.044-2.242l-0.044-2.195l-0.225-2.197l-0.358-2.152l-1.032-4.17l-1.39-3.99l2.242,0.941L69.23,75.147L69.23,75.147z
		"/>
	<polygon class="st4" points="76.807,2.287 77.705,2.645 78.556,3.138 78.646,4.529 76.897,6.143 75.059,7.667 71.337,10.492 
		71.158,10.806 71.203,11.209 72.189,12.42 73.086,13.675 70.62,14.751 68.109,15.604 65.418,16.187 62.594,16.5 61.473,15.021 
		60.486,13.451 59.769,11.792 59.231,10.043 59.904,8.744 60.755,7.533 61.876,6.457 63.087,5.56 65.822,4.708 68.692,4.215 
		68.692,4.169 67.167,4.169 65.643,4.349 64.208,4.708 62.818,5.201 61.563,5.918 60.397,6.771 59.366,7.891 58.559,9.191 
		58.11,9.999 58.021,10.896 58.379,11.792 58.828,12.644 57.841,12.51 56.899,12.644 56.047,13.003 55.331,13.675 54.927,14.303 
		54.613,14.976 54.165,16.411 53.761,17.845 53.268,19.28 52.864,20.042 52.281,20.715 51.653,21.343 50.981,21.881 50.263,22.06 
		49.591,22.016 48.201,21.657 47.528,21.477 46.901,21.477 46.273,21.747 45.735,22.329 45.601,22.733 45.645,23.271 44.659,22.463 
		44.39,21.926 44.255,21.343 44.614,20.042 44.973,19.459 45.556,19.101 46.452,18.966 47.438,18.876 48.291,18.697 48.694,18.428 
		49.008,18.025 49.277,17.308 49.412,16.59 49.546,15.11 49.591,13.541 49.815,12.017 50.084,10.985 50.353,9.909 50.622,9.416 
		50.936,9.012 51.34,8.698 51.833,8.474 53.313,7.936 54.837,7.488 56.406,7.129 58.11,6.995 57.303,6.815 56.496,6.771 
		58.514,5.156 60.621,3.722 62.818,2.511 65.06,1.479 66.315,1.121 67.616,1.076 70.216,1.21 73.58,1.614 75.194,1.883 
		76.807,2.287 	"/>
	<polygon class="st4" points="78.691,5.291 77.838,6.636 76.852,8.026 75.821,9.326 74.879,10.716 74.745,11.658 74.79,12.106 
		74.969,12.599 74.296,13.137 73.535,13.496 72.548,12.196 71.517,10.896 73.265,9.416 75.059,7.981 76.852,6.501 78.556,4.932 
		78.646,5.066 78.691,5.291 	"/>
	<polygon class="st4" points="79.229,9.147 78.376,10.088 77.391,10.94 75.328,12.465 75.104,12.017 75.014,11.479 75.597,10.313 
		76.314,9.237 77.794,7.129 78.691,5.874 79.229,9.147 	"/>
	<polygon class="st0" points="10.178,23.943 28.472,53.671 46.945,83.399 46.99,84.565 46.811,85.64 46.183,87.747 45.332,89.542 
		44.21,91.245 43.717,89.272 43,87.435 41.296,83.757 23.585,54.433 5.739,25.199 4.663,23.181 3.722,21.164 2.87,19.056 
		2.197,16.904 1.614,14.707 1.121,12.465 0.807,10.178 0.583,7.847 2.915,11.882 5.335,15.917 10.178,23.943 	"/>
	<polygon class="st0" points="13.228,19.549 17.89,26.544 22.374,33.583 31.252,47.843 40.085,62.101 49.098,76.313 50.622,78.286 
		52.371,80.171 53.357,80.933 54.389,81.56 55.509,82.054 56.72,82.278 55.689,82.771 54.523,83.175 53.268,83.487 52.012,83.667 
		50.757,83.757 49.501,83.667 48.246,83.444 47.08,83.04 35.826,64.97 24.661,46.812 2.421,10.492 1.121,8.026 4.573,10.313 
		6.277,11.658 7.937,13.003 9.461,14.483 10.896,16.052 12.151,17.755 13.228,19.549 	"/>
	<polygon class="st3" points="79.722,10.492 78.018,12.555 76.09,14.303 74.028,15.783 71.786,16.949 69.41,17.89 66.988,18.563 
		64.432,19.011 61.876,19.28 59.366,19.37 58.11,19.37 56.944,19.235 57.438,18.159 58.11,17.173 61.518,17.128 64.925,16.814 
		68.244,16.142 69.768,15.648 71.292,15.065 73.535,13.989 75.642,12.689 77.615,11.12 79.319,9.281 79.498,9.864 79.722,10.492 	
		"/>
	<polygon class="st4" points="83.084,13.989 83.219,15.245 83.174,16.59 82.771,15.962 82.278,15.514 81.695,15.155 81.067,14.931 
		79.677,14.707 78.243,14.707 77.928,14.841 77.705,15.065 77.48,15.648 77.391,17.083 76.628,16.007 76,14.886 77.122,13.944 
		78.108,12.913 79.049,11.837 79.812,10.716 80.529,11.658 81.381,12.465 83.084,13.989 	"/>
	<polygon class="st4" points="60.352,14.707 59.949,14.572 59.5,14.572 58.648,14.796 57.931,15.469 57.303,16.231 56.317,17.89 
		55.375,19.639 54.299,21.253 53.447,21.881 52.55,22.419 51.564,22.643 50.533,22.553 51.609,21.836 52.46,20.984 53.178,19.998 
		53.716,18.876 54.568,16.545 55.331,14.214 56.047,13.451 56.944,12.958 57.931,12.734 58.962,12.868 60.352,14.707 	"/>
	<polygon class="st4" points="77.391,17.755 77.391,18.742 77.525,19.684 74.879,15.693 75.687,15.155 76.494,16.456 77.391,17.755 
			"/>
	<polygon class="st4" points="61.921,16.5 60.262,16.635 58.604,16.635 58.873,16.231 59.276,15.917 60.262,15.648 60.711,15.738 
		61.114,15.917 61.921,16.5 	"/>
	<polygon class="st9" points="82.098,16.097 82.547,16.904 82.906,17.801 83.219,19.729 83.219,21.702 83.041,23.674 82.278,25.737 
		81.695,26.678 81.112,27.575 80.753,27.844 80.35,28.023 79.767,27.575 79.364,26.992 78.556,25.782 78.466,25.782 78.421,25.916 
		78.466,27.306 78.646,28.696 78.87,30.131 78.915,31.566 78.243,32.956 77.391,34.346 75.462,36.991 73.176,39.323 71.965,40.354 
		70.62,41.295 67.795,41.564 66.361,41.52 65.06,41.206 64.925,40.892 64.835,40.533 64.925,39.816 65.553,39.188 66.315,38.919 
		67.167,38.785 68.109,38.785 69.005,39.009 69.41,39.188 69.813,39.458 69.858,39.996 69.768,40.264 69.543,40.444 69.41,40.533 
		69.365,40.623 69.813,40.489 70.126,40.04 70.171,39.771 70.037,39.368 69.588,39.009 69.005,38.74 67.795,38.471 66.495,38.516 
		65.284,38.785 64.791,39.099 64.387,39.502 62.594,36.857 60.801,34.211 59.097,31.476 58.334,30.086 57.707,28.651 57.527,27.037 
		57.572,25.333 57.438,23.674 57.213,22.912 56.855,22.15 57.303,22.016 57.796,21.926 58.29,22.016 58.738,22.329 58.021,22.777 
		57.438,23.405 57.886,23.405 58.245,23.36 58.11,24.123 58.245,24.885 58.11,24.75 57.931,24.706 58.29,25.289 58.828,25.692 
		60.128,26.275 60.755,26.41 61.428,26.454 62.056,26.32 62.594,26.051 63.177,28.113 63.58,30.266 63.222,31.118 63.177,31.566 
		63.356,32.014 63.446,32.149 63.625,32.193 63.939,32.283 64.253,32.507 64.657,32.687 64.97,32.821 65.15,33.18 65.195,33.628 
		65.195,33.763 65.329,33.628 65.463,33.135 65.598,32.956 65.957,32.956 65.598,32.687 65.195,32.418 64.297,31.969 62.549,23.271 
		62.953,22.553 63.042,22.15 63.087,21.747 62.773,22.374 62.594,22.688 62.28,22.957 61.697,22.733 61.159,22.463 60.128,21.567 
		59.142,20.625 58.604,20.267 58.065,20.042 57.617,20.132 57.258,20.356 56.586,20.939 56.586,19.773 59.59,19.953 62.639,19.953 
		65.643,19.594 67.078,19.28 68.467,18.876 71.472,17.577 74.476,15.962 77.66,20.491 77.794,20.939 77.973,21.343 77.973,18.608 
		78.063,17.262 78.243,15.962 79.184,15.693 80.17,15.648 81.202,15.783 82.098,16.097 	"/>
	<polygon class="st5" points="81.516,18.563 82.233,21.747 82.278,22.509 82.233,23.316 82.053,24.078 81.65,24.84 81.292,24.437 
		80.978,23.943 80.843,23.405 80.753,22.777 81.067,23.316 81.202,23.674 81.426,23.943 81.695,23.405 81.785,22.777 81.785,21.522 
		81.695,20.491 81.426,19.549 81.022,18.652 80.485,17.801 79.901,19.37 79.632,21.029 79.542,22.733 79.632,24.481 79.408,24.392 
		79.184,24.212 78.915,23.674 78.781,22.329 79.004,20.984 79.722,18.383 80.036,17.755 80.26,17.487 80.529,17.308 80.933,17.442 
		81.202,17.755 81.516,18.563 	"/>
	<polygon class="st5" points="75.956,20.67 75.732,20.67 75.462,20.625 73.848,20.715 73.131,20.85 72.414,21.119 72.907,21.298 
		73.445,21.522 73.893,21.836 74.208,22.24 73.535,22.06 73.31,22.105 73.445,22.463 73.535,23.091 73.535,23.674 73.848,23.495 
		73.938,23.45 73.803,23.674 72.727,24.392 71.561,25.02 70.306,25.468 68.917,25.647 68.333,25.468 68.064,25.244 67.885,25.02 
		68.154,25.064 68.378,25.109 68.154,24.212 68.064,23.271 67.392,23.719 66.854,24.257 66.001,25.468 65.463,26.813 65.195,28.203 
		65.195,26.903 65.463,25.737 66.046,24.616 66.764,23.584 66.001,23.45 65.329,23.046 64.88,22.329 64.702,21.926 64.657,21.522 
		65.15,22.105 65.418,22.329 65.778,22.509 66.45,22.419 67.123,22.195 68.244,21.477 69.275,20.581 70.396,19.818 70.889,19.549 
		71.427,19.415 72.548,19.415 73.669,19.549 74.701,19.818 75.373,20.177 75.956,20.67 	"/>
	<polygon class="st4" points="75.014,20.312 73.758,20.356 72.592,20.581 71.517,20.984 70.486,21.477 68.378,22.509 67.302,22.867 
		66.181,23.136 65.778,23.001 65.418,22.733 66.091,22.867 66.719,22.777 67.392,22.463 67.974,22.105 69.455,20.895 70.216,20.356 
		71.024,19.863 72.099,19.773 73.176,19.818 74.163,19.953 75.014,20.312 	"/>
	<polygon class="st4" points="61.697,23.226 60.621,22.822 59.59,22.24 58.559,21.747 57.482,21.477 56.944,21.567 56.451,21.791 
		56.72,21.343 57.124,20.984 58.065,20.446 58.962,21.074 59.814,21.881 60.711,22.643 61.697,23.226 	"/>
	<polygon class="st4" points="56.092,22.24 56.272,22.285 56.317,22.463 56.406,22.777 55.778,22.105 55.554,21.747 55.509,21.432 
		56.003,20.805 56.092,21.477 56.092,22.24 	"/>
	<polygon class="st4" points="87.299,22.329 87.749,22.822 87.972,23.45 88.152,24.795 88.242,25.513 88.465,26.096 88.869,26.589 
		89.497,26.903 90.035,27.127 90.439,27.53 90.752,28.023 90.887,28.562 90.932,29.01 90.708,29.01 90.125,28.562 89.811,28.113 
		89.407,27.8 88.375,27.485 87.882,27.306 87.434,27.127 87.076,26.768 86.851,26.275 86.941,26.141 86.851,26.051 86.806,25.961 
		86.762,25.872 86.717,24.795 86.583,24.347 86.313,23.943 85.82,23.54 85.193,23.271 84.027,22.777 84.162,21.477 84.878,21.747 
		85.685,21.97 87.299,22.329 	"/>
	<polygon class="st11" points="72.01,22.105 71.965,22.777 71.696,23.405 71.158,23.809 70.486,23.898 69.723,23.495 69.41,23.181 
		69.23,22.822 69.543,22.553 69.903,22.374 70.037,22.912 70.486,23.271 70.799,23.316 71.113,23.271 71.382,23.001 71.517,22.643 
		71.472,21.926 71.292,21.747 71.292,21.702 71.427,21.702 71.651,21.657 71.831,21.747 72.01,22.105 	"/>
	<polygon class="st7" points="73.22,22.822 73.22,23.54 73.086,23.854 72.862,24.078 71.92,24.481 70.934,24.795 69.903,25.02 
		68.827,25.064 68.602,24.661 68.423,24.167 68.467,23.136 68.872,22.912 69.23,23.584 69.813,24.123 70.261,24.212 70.709,24.212 
		71.517,23.988 71.92,23.719 72.234,23.36 72.414,22.957 72.503,22.509 72.503,22.15 72.414,21.791 72.817,21.836 73.042,22.06 
		73.22,22.822 	"/>
	<polygon class="st4" points="48.335,22.285 47.618,22.285 47.304,22.463 47.035,22.733 46.856,23.316 46.945,23.943 47.08,24.123 
		46.901,24.078 46.452,23.809 46.183,23.226 46.273,22.598 46.363,22.24 46.587,22.016 47.169,21.926 47.752,22.016 48.335,22.285 	
		"/>
	<polygon class="st10" points="71.113,22.285 71.024,22.463 70.844,22.598 70.62,22.419 70.441,22.15 70.62,21.97 70.889,21.881 
		71.113,22.016 71.113,22.285 	"/>
	<polygon class="st9" points="56.855,26.813 56.317,26.32 55.958,25.782 55.689,25.109 55.509,24.437 55.554,23.584 55.778,22.777 
		56.899,23.943 56.855,26.813 	"/>
	<polygon class="st7" points="59.366,23.45 59.366,24.033 59.635,24.661 60.308,25.109 61.159,25.199 61.742,24.975 62.235,24.661 
		62.459,25.378 62.415,25.692 62.056,25.872 61.249,25.961 60.486,25.916 59.724,25.737 59.097,25.468 58.648,24.706 58.514,23.854 
		58.559,23.45 58.738,23.181 59.007,23.046 59.366,23.001 59.635,22.957 59.59,23.091 59.366,23.45 	"/>
	<polygon class="st11" points="60.352,23.271 60.262,23.629 60.352,24.078 60.576,24.257 60.89,24.392 61.204,24.392 61.563,24.257 
		61.697,23.988 61.876,23.764 62.056,24.123 62.101,24.347 62.056,24.526 61.652,24.706 61.293,24.795 60.442,24.706 59.993,24.257 
		59.769,23.674 59.949,23.181 60.128,23.046 60.352,23.271 	"/>
	<polygon class="st10" points="61.428,23.854 61.249,23.898 61.069,23.809 61.024,23.629 61.069,23.45 61.383,23.54 61.518,23.629 
		61.428,23.854 	"/>
	<polygon class="st4" points="86.358,24.84 86.448,25.603 86.538,26.32 85.372,25.109 84.34,23.854 85.461,24.167 86,24.392 
		86.358,24.84 	"/>
	<polygon class="st9" points="91.38,30.4 90.708,31.476 89.99,32.597 88.958,34.884 88.152,37.26 87.524,39.727 87.121,42.237 
		85.641,44.121 83.982,45.824 82.143,47.394 80.215,48.739 78.333,49.501 76.314,50.173 74.163,50.712 71.965,51.026 69.723,51.114 
		67.616,50.847 66.584,50.577 65.553,50.218 64.567,49.771 63.67,49.187 62.235,48.245 61.024,47.169 60.038,45.914 59.231,44.569 
		58.559,43.134 58.11,41.609 57.841,40.04 57.751,38.426 58.693,36.139 59.142,35.018 59.769,33.897 63.895,39.637 63.939,40.489 
		64.164,41.295 64.522,41.968 65.15,42.506 66.495,42.73 67.885,42.865 69.275,42.82 70.62,42.461 72.862,40.489 75.014,38.292 
		77.032,36.005 78.826,33.628 79.184,33 79.408,32.373 79.454,30.938 79.274,29.458 79.139,28.069 79.632,28.651 80.215,29.055 
		81.022,28.786 81.65,28.337 82.188,27.754 82.547,27.082 83.174,25.603 83.712,24.167 85.417,25.961 87.255,27.62 89.318,29.1 
		91.38,30.4 	"/>
	<polygon class="st1" points="54.882,33.808 54.658,33.853 54.478,33.808 54.344,32.462 54.389,31.118 54.837,28.427 55.689,28.069 
		56.496,27.665 55.509,30.669 55.106,32.238 54.882,33.808 	"/>
	<polygon class="st1" points="58.424,31.79 56.765,35.333 56.272,34.48 55.913,34.122 55.509,33.942 55.465,32.911 55.554,31.924 
		56.003,29.907 56.362,28.92 56.72,27.844 56.899,28.965 57.303,29.952 58.424,31.79 	"/>
	<polygon class="st1" points="53.985,33.942 53.313,34.301 52.819,34.839 52.64,33.404 52.595,31.924 52.685,30.445 52.954,29.055 
		53.716,28.831 54.478,28.562 54.03,31.162 53.896,32.552 53.985,33.942 	"/>
	<polygon class="st1" points="52.281,34.839 52.64,36.722 52.954,37.574 53.268,37.978 53.671,38.247 54.03,38.516 54.523,38.605 
		55.465,38.471 56.003,38.112 56.406,37.708 56.72,37.17 56.944,36.633 57.303,35.422 57.751,34.256 58.11,33.27 58.648,32.193 
		59.545,33.494 58.693,34.929 58.11,36.364 57.438,37.843 57.034,38.516 56.541,39.144 55.644,39.682 55.151,39.816 54.613,39.816 
		54.12,39.727 53.671,39.502 52.954,38.83 52.371,37.978 51.922,37.126 51.384,35.287 51.071,33.359 51.026,31.387 51.34,29.503 
		52.64,29.145 52.281,31.924 52.191,33.404 52.281,34.839 	"/>
	<polygon class="st9" points="52.46,39.278 51.609,41.564 51.026,43.941 50.622,46.407 50.533,49.009 50.757,52.415 51.34,55.688 
		51.788,57.214 52.326,58.737 52.999,60.263 53.761,61.696 54.972,63.491 56.496,65.104 58.2,66.54 60.038,67.751 59.993,69.409 
		60.352,70.978 59.814,71.876 59.186,72.728 57.572,74.161 57.482,74.161 57.034,72.907 56.362,71.741 55.554,70.575 54.613,69.499 
		53.582,68.513 52.46,67.661 51.295,66.897 50.129,66.226 47.169,64.925 44.255,63.446 45.197,62.593 46.318,62.011 47.483,63.356 
		48.874,64.478 49.636,64.88 50.488,65.149 51.34,65.284 52.281,65.239 52.954,65.104 53.537,64.835 54.12,64.433 54.523,63.849 
		54.478,63.804 54.12,64.208 53.716,64.478 52.774,64.79 51.788,64.835 50.802,64.7 49.367,63.938 48.156,62.907 47.214,61.741 
		46.497,60.397 45.914,58.962 45.466,57.437 44.883,54.388 44.749,51.923 44.973,49.456 45.421,47.079 46.183,44.838 46.138,44.748 
		45.286,46.183 44.749,44.838 44.3,43.358 43.717,40.264 43.717,37.888 43.941,35.512 44.39,33.27 44.749,32.238 45.242,31.207 
		45.466,30.803 45.78,30.535 46.632,30.221 48.515,29.907 50.936,29.548 50.667,32.059 50.802,34.615 51.026,35.871 51.384,37.081 
		51.833,38.202 52.46,39.278 	"/>
	<polygon class="st5" points="68.244,30.849 68.109,31.297 67.84,31.7 67.347,31.7 66.854,31.79 66.361,32.014 65.957,32.328 
		66.091,31.79 66.315,31.566 66.584,31.431 67.078,31.387 67.571,31.476 67.84,30.983 67.93,30.714 67.84,30.4 67.706,30.311 
		67.481,30.311 67.347,30.266 67.437,30.131 67.706,30.221 67.974,30.355 68.109,30.579 68.244,30.849 	"/>
	<polygon class="st9" points="63.805,31.745 63.536,31.656 63.491,31.387 63.67,30.803 63.805,31.745 	"/>
	<polygon class="st1" points="93.488,31.566 92.457,32.687 91.559,33.897 90.797,35.198 90.169,36.498 89.676,37.843 89.273,39.278 
		88.735,42.237 88.42,43.044 88.287,43.941 88.375,44.793 88.69,45.6 89.452,46.362 89.9,46.542 90.439,46.587 91.335,46.497 
		92.097,46.003 92.77,45.376 93.353,44.659 94.519,42.73 95.954,40.892 97.613,39.233 99.406,37.843 101.423,36.543 102.5,36.005 
		103.621,35.512 105.728,36.139 103.979,36.902 102.276,37.888 100.662,39.054 99.092,40.354 96.132,43.313 93.398,46.272 
		92.545,46.812 91.649,47.214 90.708,47.438 89.676,47.394 88.645,46.362 88.242,45.779 87.972,45.197 87.659,43.852 87.659,42.461 
		87.793,41.027 88.107,39.592 88.69,36.946 89.228,35.377 89.9,33.853 90.752,32.373 91.784,31.028 91.918,30.938 92.008,30.803 
		93.488,31.566 	"/>
	<polygon class="st1" points="94.967,32.328 93.622,33.763 92.457,35.333 91.514,36.991 90.708,38.74 90.573,39.592 90.483,40.399 
		89.586,41.027 89.9,38.964 90.483,36.991 91.246,35.153 92.232,33.404 92.86,32.552 93.622,31.745 94.339,32.014 94.967,32.328 	
		"/>
	<polygon class="st1" points="100.347,34.525 99.316,35.063 98.33,35.691 96.402,37.26 94.653,39.099 93.173,41.071 92.77,40.668 
		92.232,40.444 91.694,40.309 91.066,40.309 91.604,38.157 92.008,37.126 92.501,36.095 93.756,34.211 95.281,32.507 97.792,33.539 
		100.347,34.525 	"/>
	<polygon class="st5" points="70.62,34.256 70.575,34.839 70.486,35.063 70.216,35.198 70.126,35.153 70.082,34.974 70.126,34.66 
		69.678,34.884 69.185,34.929 68.154,34.929 67.123,34.929 66.629,35.063 66.181,35.377 65.643,35.467 65.105,35.377 64.119,35.063 
		62.729,35.198 62.729,35.108 62.818,35.063 63.042,34.929 63.311,34.525 63.67,34.301 64.612,34.256 65.553,34.256 66.001,34.167 
		66.406,33.942 68.289,34.211 69.23,34.346 70.171,34.122 69.993,33.763 70.351,33.942 70.62,34.256 	"/>
	<polygon class="st9" points="68.827,34.436 68.961,34.525 68.917,34.615 68.109,34.57 67.257,34.66 65.643,35.018 64.657,34.884 
		64.074,34.794 63.58,34.794 63.984,34.615 64.477,34.66 64.97,34.705 65.508,34.66 66.943,34.211 67.974,34.436 68.467,34.48 
		68.827,34.436 	"/>
	<polygon class="st6" points="55.913,35.018 56.182,35.781 56.182,36.588 55.734,37.35 55.42,37.664 55.061,37.888 54.523,37.933 
		54.254,37.888 53.985,37.708 53.357,37.036 53.088,36.677 52.954,36.184 53.133,35.377 53.671,34.75 54.209,34.436 54.837,34.346 
		55.465,34.525 55.913,35.018 	"/>
	<polygon class="st1" points="102.814,35.333 100.258,36.677 97.836,38.336 95.639,40.354 94.608,41.475 93.711,42.641 
		93.353,41.34 94.967,39.323 96.805,37.484 98.868,35.96 99.989,35.333 101.11,34.794 102.814,35.333 	"/>
	<polygon class="st5" points="64.791,36.677 64.702,36.767 65.418,36.722 66.181,36.588 66.899,36.633 67.212,36.812 67.526,37.081 
		66.136,37.081 64.702,37.26 64.208,36.722 64.074,36.364 64.119,35.96 64.208,35.556 64.342,35.467 64.477,35.691 64.567,36.229 
		64.791,36.677 	"/>
	<polygon class="st9" points="113.933,38.874 114.606,40.085 115.189,41.385 115.592,42.686 115.907,44.076 116.22,46.854 
		116.085,49.726 115.682,52.64 115.009,55.419 114.113,58.065 113.082,60.53 112.23,62.28 111.243,63.983 109.136,67.257 
		109.225,67.257 109.898,66.675 110.436,65.956 110.974,65.239 111.557,64.522 111.512,67.571 111.109,70.53 110.436,73.489 
		109.629,76.313 107.701,80.888 106.625,82.95 105.503,84.923 103.217,89.003 102.231,91.065 101.513,93.263 101.02,95.505 
		100.885,97.882 100.303,98.374 100.079,97.747 99.854,97.478 99.496,97.298 98.195,97.343 96.985,97.747 95.954,98.419 
		95.057,99.405 95.012,99.72 95.102,99.944 95.55,100.302 96.402,100.169 97.208,99.899 97.926,99.495 98.599,98.958 98.689,98.688 
		98.554,98.419 98.195,98.374 97.836,98.419 97.164,98.778 97.388,98.868 97.613,98.778 97.836,98.688 98.151,98.688 98.241,98.868 
		98.151,99.048 97.748,99.271 96.537,99.81 95.999,99.944 95.684,99.899 95.371,99.72 95.46,99.36 95.729,99.048 96.267,98.554 
		97.03,98.194 97.792,97.882 98.599,97.747 99.451,97.747 99.675,97.972 99.72,98.284 99.63,98.688 99.451,98.958 98.868,99.405 
		98.195,99.765 97.568,100.169 95.909,100.976 94.205,101.603 92.412,102.142 90.618,102.544 86.851,103.038 83.041,103.173 
		81.695,103.173 80.35,102.993 79.722,102.813 79.139,102.589 78.601,102.231 78.108,101.782 77.122,100.571 76.36,99.271 
		75.821,97.837 75.462,96.312 75.283,94.788 75.328,93.218 75.597,91.694 76,90.169 76.628,88.733 77.525,87.435 79.139,86.538 
		80.664,85.597 82.233,84.608 83.802,83.667 85.461,82.95 87.21,82.456 89.048,82.233 90.977,82.456 92.097,82.995 93.083,83.802 
		93.846,84.788 94.339,85.909 94.384,86.671 94.294,87.435 94.026,88.151 93.488,88.733 92.322,89.677 91.021,90.349 89.631,90.708 
		88.152,90.841 89.228,90.931 90.259,90.796 91.291,90.483 92.232,90.079 93.218,89.497 94.16,88.69 94.519,88.196 94.833,87.702 
		95.012,87.12 95.012,86.493 94.833,85.685 94.519,84.878 94.115,84.116 93.577,83.399 92.277,82.188 91.559,81.739 90.752,81.337 
		89.452,81.022 88.017,80.933 86.627,81.067 85.327,81.425 84.655,79.677 84.295,77.839 84.162,75.911 84.206,73.894 84.43,72.054 
		84.833,70.216 85.417,68.468 86.134,66.765 87.076,65.149 88.197,63.669 89.497,62.325 90.977,61.069 92.95,59.724 93.936,59.097 
		94.967,58.558 94.967,58.513 94.339,58.558 93.756,58.737 92.545,59.142 92.457,56.093 92.68,53.089 93.218,50.173 93.98,47.304 
		94.788,45.735 97.523,42.73 99.002,41.295 100.527,39.951 102.096,38.785 103.8,37.798 105.593,36.991 107.477,36.543 
		109.225,36.857 110.974,37.17 111.781,37.395 112.588,37.753 113.306,38.247 113.933,38.874 	"/>
	<polygon class="st2" points="56.541,40.668 56.72,42.237 57.079,43.807 57.572,45.286 58.245,46.722 59.007,48.065 59.949,49.366 
		61.024,50.532 62.235,51.608 61.697,52.058 61.293,52.505 60.98,53.089 60.755,53.671 60.576,54.972 60.621,56.315 60.801,57.214 
		61.114,58.065 61.607,58.737 61.966,59.007 62.37,59.187 62.639,59.142 62.863,59.007 63.177,58.603 63.267,58.065 63.267,57.526 
		62.998,56.54 62.953,57.796 62.773,58.335 62.415,58.782 62.011,58.603 61.697,58.378 61.338,57.706 60.98,56.093 61.024,54.882 
		61.249,53.671 61.473,53.179 61.832,52.685 62.235,52.28 62.773,51.968 63.042,52.325 63.267,52.729 63.491,53.626 64.791,61.384 
		65.598,65.149 66.584,68.87 66.54,69.229 66.226,69.409 65.195,69.319 64.253,69.005 62.415,68.198 61.338,67.661 60.352,67.032 
		58.559,65.554 57.034,63.849 55.644,62.011 54.523,59.993 53.537,57.841 52.729,55.688 52.012,53.581 51.653,52.147 51.474,50.667 
		51.34,47.618 51.564,44.569 52.057,41.699 52.595,39.906 53.537,40.489 54.523,40.892 55.509,41.027 56.047,40.892 56.541,40.668 	
		"/>
	<polygon class="st6" points="65.733,51.249 68.289,51.833 70.889,51.968 73.445,51.698 75.911,51.071 78.333,50.128 80.619,48.874 
		82.816,47.394 84.744,45.645 85.82,44.569 86.762,43.448 86.717,43.941 86.806,44.39 87.121,45.286 84.61,47.843 83.219,49.009 
		81.785,50.04 80.305,50.981 78.691,51.743 77.077,52.37 75.373,52.774 73.355,53.134 71.292,53.356 69.275,53.356 67.302,53.134 
		65.418,52.64 63.58,51.878 61.966,50.757 60.531,49.276 59.231,47.528 58.648,46.587 58.2,45.645 57.886,45.017 57.662,44.345 
		57.213,42.91 57.034,41.699 56.944,40.444 57.393,39.996 57.617,41.789 58.155,43.538 58.962,45.242 59.949,46.812 61.159,48.2 
		62.504,49.456 64.029,50.487 65.733,51.249 	"/>
	<polygon class="st6" points="92.545,41.609 92.905,42.327 92.95,43.134 92.815,43.941 92.501,44.659 91.874,45.421 91.424,45.735 
		90.977,45.869 90.573,45.959 90.169,45.869 89.766,45.69 89.452,45.421 89.093,44.748 88.958,43.941 89.048,43.134 89.318,42.417 
		90.035,41.52 90.887,40.802 91.424,40.847 91.874,40.937 92.232,41.206 92.545,41.609 	"/>
	<polygon class="st2" points="89.183,48.245 90.169,48.515 90.663,48.604 91.156,48.515 90.618,51.204 90.349,53.94 90.349,56.765 
		90.483,59.544 90.752,59.903 89.318,60.71 88.062,61.696 86.986,62.817 86,64.073 85.148,65.419 84.43,66.853 83.847,68.288 
		83.354,69.724 83.041,71.202 82.861,72.772 81.65,72.952 80.44,72.995 78.063,72.772 75.732,72.278 73.445,71.696 72.099,71.202 
		70.665,70.62 70.037,70.261 69.455,69.813 69.005,69.229 68.692,68.513 67.526,65.599 66.629,62.505 66.136,59.321 65.957,55.958 
		66.091,54.702 66.315,54.12 66.674,53.626 68.109,53.896 68.647,54.433 69.095,55.017 69.41,55.688 69.678,56.36 69.948,57.841 
		70.037,59.366 69.858,60.083 69.723,60.397 69.365,60.575 68.737,60.53 68.512,60.397 68.289,60.173 67.93,59.589 67.795,58.917 
		67.84,58.2 68.109,57.526 68.244,57.347 67.974,57.437 67.795,57.616 67.526,58.155 67.392,58.872 67.481,59.544 67.706,60.173 
		68.109,60.71 68.467,60.979 68.872,61.069 69.678,60.935 70.037,60.62 70.261,60.218 70.486,59.321 70.486,58.335 70.396,57.347 
		69.903,55.554 69.455,54.747 68.827,54.03 71.92,54.03 74.163,53.716 76.27,53.134 78.288,52.37 80.26,51.384 82.143,50.218 
		83.937,48.874 85.641,47.394 87.255,45.69 87.569,46.452 87.927,47.169 88.465,47.798 89.183,48.245 	"/>
	<polygon class="st6" points="92.052,59.321 91.559,59.589 91.021,59.769 90.932,59.679 90.887,59.499 90.708,56.63 90.797,53.761 
		91.156,50.981 91.829,48.335 92.412,48.155 92.95,47.798 92.277,50.577 91.874,53.446 91.784,56.405 92.052,59.321 	"/>
	<polygon class="st8" points="43.583,51.161 43.583,52.999 43.627,53.94 43.762,54.792 42.641,54.478 43,53.356 43.089,52.729 
		43.089,52.101 42.327,51.653 41.52,51.294 39.861,50.937 39.816,50.802 39.727,50.712 39.547,51.968 39.458,53.224 38.023,52.909 
		37.26,52.819 36.498,52.864 36.364,51.519 36.095,50.173 36.184,50.173 36.184,50.083 35.96,49.95 34.615,49.726 33.27,49.726 
		32.732,49.009 32.642,48.739 33.135,48.649 35.916,48.919 38.516,49.501 41.027,50.308 43.583,51.161 	"/>
	<polygon class="st8" points="35.736,50.128 35.916,50.847 36.05,51.563 36.364,52.999 37.933,53.267 39.592,53.491 39.816,52.325 
		39.951,51.114 42.82,52.147 42.596,53.356 42.507,54.567 43.807,55.196 44.076,56.45 42.148,55.464 40.13,54.747 37.978,54.21 
		35.781,53.896 34.57,51.968 33.449,49.995 34.57,50.04 35.736,50.128 	"/>
	<polygon class="st8" points="21.836,53.267 21.567,53.626 21.253,53.806 21.522,54.478 21.881,55.062 22.823,56.228 21.388,57.259 
		20.67,57.886 20.132,58.558 19.011,57.661 17.801,56.944 17.711,56.989 17.756,57.079 17.756,57.169 17.667,57.214 16.814,58.11 
		16.142,59.097 15.021,61.204 16.321,62.146 17.711,62.952 16.904,64.522 16.59,65.329 16.411,66.181 14.796,65.733 13.183,65.374 
		12.644,66.405 12.331,67.481 11.792,69.769 11.882,69.948 12.017,69.948 14.662,70.62 14.348,71.696 14.169,72.772 13.945,74.97 
		12.51,74.835 11.748,74.79 11.03,74.835 10.94,75.956 10.851,77.122 10.985,78.601 11.209,80.036 11.389,80.081 14.034,80.081 
		14.034,81.112 14.169,82.054 14.707,83.892 13.272,84.116 11.882,84.431 11.927,85.729 12.196,86.94 12.644,88.151 13.228,89.317 
		13.541,89.542 13.945,89.452 15.917,88.823 16.231,89.81 16.59,90.753 17.083,91.649 17.667,92.501 16.949,92.948 16.187,93.263 
		15.828,93.442 15.559,93.667 15.424,94.024 15.469,94.429 15.917,95.46 16.456,96.401 17.801,98.239 18.384,98.017 18.966,97.747 
		20.042,97.073 20.536,97.837 21.119,98.554 22.464,99.899 21.253,100.841 20.267,101.962 20.222,102.097 20.312,102.142 
		20.401,102.187 20.491,102.274 21.164,103.173 21.926,103.979 23.719,105.368 23.854,105.415 23.989,105.368 24.975,104.472 
		25.737,103.396 27.038,104.517 27.755,105.011 28.517,105.368 27.217,107.655 27.217,107.925 27.307,108.149 27.351,108.149 
		27.441,108.06 28.338,108.776 29.279,109.271 30.311,109.673 31.342,109.987 31.387,110.122 31.477,110.167 32.059,108.866 
		32.553,107.478 33.359,107.925 34.256,108.239 36.095,108.687 35.826,110.122 35.646,111.558 36.14,111.87 36.633,112.05 
		37.753,112.274 39.233,112.454 40.758,112.409 40.803,111.646 40.803,110.929 40.534,109.495 40.489,109.495 40.489,109.583 
		40.399,110.929 40.534,112.229 39.323,112.229 38.202,112.05 36.05,111.513 36.229,110.032 36.274,108.552 34.346,107.925 
		33.449,107.521 32.553,107.073 32.373,107.073 32.328,107.118 32.328,107.388 31.791,108.597 31.342,109.763 29.414,108.911 
		27.62,107.835 28.741,105.503 28.831,105.415 28.786,105.28 27.217,104.294 25.782,103.083 24.706,104.114 23.854,105.235 
		22.105,103.755 20.536,102.007 21.612,101.065 22.643,100.034 22.733,100.034 22.867,100.034 21.567,98.509 20.267,96.94 
		20.267,96.761 20.222,96.671 19.011,97.253 18.429,97.567 17.89,97.972 16.59,95.997 15.604,93.935 16.814,93.353 17.98,92.726 
		18.025,92.546 17.89,92.456 17.756,92.366 17.667,92.142 16.814,90.438 16.097,88.646 15.917,88.511 15.783,88.646 13.452,89.183 
		13.003,88.106 12.689,86.985 12.062,84.698 14.796,84.116 14.886,84.161 14.976,84.026 14.527,82.054 14.303,79.946 14.214,79.856 
		14.079,79.856 13.99,79.946 13.855,79.901 12.644,79.812 11.434,79.812 11.254,78.646 11.209,77.435 11.389,75.06 12.913,75.192 
		14.348,75.237 14.348,74.028 14.527,72.862 14.752,71.651 14.886,70.44 13.541,69.948 12.106,69.589 12.331,68.603 12.644,67.661 
		13.317,65.733 16.411,66.405 18.07,63.177 18.025,62.907 16.68,62.011 15.334,61.069 16.545,59.187 17.89,57.347 18.922,58.065 
		19.998,58.737 19.998,58.872 20.042,58.872 20.222,58.782 21.612,57.571 23.047,56.315 23.136,56.36 23.181,56.272 21.567,53.851 
		22.016,53.581 24.392,57.481 22.195,59.187 20.401,61.114 18.922,63.267 17.756,65.554 16.859,68.019 16.231,70.575 15.828,73.265 
		15.648,75.911 15.738,79.542 16.187,83.13 16.904,86.583 17.98,89.854 19.011,91.917 20.267,93.935 21.657,95.909 23.226,97.792 
		24.93,99.585 26.724,101.243 28.607,102.769 30.535,104.069 32.463,105.28 34.525,106.267 36.677,107.118 38.919,107.745 
		41.206,108.06 43.538,108.104 45.825,107.835 48.156,107.163 49.412,106.714 50.622,106.132 52.954,104.651 54.703,105.146 
		55.689,104.651 56.137,105.011 56.586,105.235 58.11,105.368 58.11,105.862 58.245,106.356 56.765,107.343 55.285,108.194 
		54.523,106.938 53.626,105.728 52.729,106.312 51.833,106.804 49.95,107.521 50.443,108.956 51.205,110.302 49.95,110.839 
		48.694,111.198 46.049,111.735 45.511,110.437 45.107,109.136 42.955,109.36 40.758,109.45 40.624,109.583 40.668,109.63 
		40.893,109.718 41.879,109.808 42.91,109.763 44.883,109.36 45.242,110.749 45.466,111.468 45.825,112.095 47.394,111.96 
		48.874,111.603 50.263,111.019 51.564,110.212 51.474,110.122 51.34,109.987 50.847,108.911 50.263,107.79 51.116,107.521 
		51.967,107.118 53.537,105.997 54.882,108.239 55.241,108.419 55.554,108.464 56.182,108.239 57.393,107.388 58.334,106.579 
		58.917,107.208 57.707,108.194 56.496,109.136 55.196,109.942 53.851,110.659 52.46,111.288 51.071,111.825 48.111,112.679 
		45.017,113.216 41.879,113.44 38.695,113.351 35.512,113.036 32.866,112.229 30.4,111.153 27.979,109.897 25.692,108.464 
		23.495,106.804 21.478,104.966 19.549,102.948 17.756,100.841 16.142,98.599 14.662,96.267 13.362,93.802 12.196,91.29 
		11.254,88.778 10.447,86.179 9.865,83.534 9.461,80.888 9.192,77.704 9.192,74.521 9.372,71.382 9.865,68.333 10.716,65.374 
		11.837,62.55 12.51,61.204 13.317,59.858 14.169,58.603 15.155,57.347 16.5,55.868 17.936,54.522 21.074,52.058 21.522,52.64 
		21.836,53.267 	"/>
	<polygon class="st2" points="66.315,53.581 66.001,54.075 65.778,54.657 65.598,55.868 65.598,58.335 66.001,61.384 66.584,64.343 
		66.988,65.776 67.481,67.167 68.109,68.513 68.827,69.813 70.082,70.755 71.472,71.562 72.952,72.278 74.476,72.862 77.615,73.714 
		80.843,74.296 82.771,74.251 82.906,75.956 83.174,77.569 80.843,76.179 78.421,74.97 75.956,73.849 73.445,72.907 72.638,72.728 
		71.741,72.593 70.844,72.683 70.037,72.952 69.858,73.399 69.858,73.894 70.037,74.79 66.584,72.503 62.953,70.485 62.325,69.679 
		61.876,68.782 62.953,69.274 64.029,69.679 65.195,69.901 66.45,69.813 66.943,69.544 67.212,69.05 66.943,67.571 66.495,66.136 
		65.643,63.267 65.06,60.979 64.612,58.647 63.849,53.896 63.356,52.37 64.791,53.044 66.315,53.581 	"/>
	<polygon class="st8" points="44.166,57.079 44.793,59.007 45.645,60.89 44.39,61.741 43.896,62.325 43.538,62.907 43.045,62.728 
		42.686,62.46 41.923,61.696 41.161,61.069 40.713,60.89 40.175,60.845 38.112,57.616 36.14,54.343 38.292,54.657 40.354,55.196 
		42.327,56.003 44.166,57.079 	"/>
	<polygon class="st8" points="36.095,76.718 34.346,79.095 32.508,81.337 30.714,83.577 29.952,84.788 29.234,86.044 28.696,85.774 
		28.203,85.372 27.127,84.206 26.141,82.95 25.558,82.368 24.975,81.964 24.302,81.649 23.495,81.604 22.688,81.919 22.016,82.456 
		21.433,83.13 21.074,83.892 21.119,85.372 21.522,86.806 22.33,87.972 23.361,88.913 24.257,88.958 25.064,89.228 26.679,90.034 
		25.961,91.2 25.513,92.456 24.93,95.101 24.885,96.312 25.02,96.896 25.423,97.343 25.961,97.747 26.589,97.927 27.217,97.972 
		27.889,98.149 28.293,99.226 28.651,99.675 28.875,99.81 29.234,99.854 30.266,99.944 31.342,100.124 31.97,100.886 
		32.687,101.423 33.539,101.737 34.48,101.917 34.75,102.187 35.108,102.499 37.753,101.333 38.023,103.038 38.381,103.755 
		38.65,104.069 39.099,104.294 39.637,104.696 40.22,104.966 41.52,105.235 42.327,104.741 43,103.979 43.493,103.128 
		43.807,102.142 43.672,101.692 43.403,101.243 42.686,100.571 41.834,99.944 41.117,99.226 40.354,97.792 40.13,97.028 
		40.22,96.222 39.906,95.505 39.413,94.878 39.906,92.411 39.906,91.11 39.816,90.483 39.547,89.899 39.906,89.138 40.399,88.421 
		41.699,87.21 42.417,89.407 42.73,90.528 42.865,91.739 42.327,92.546 41.61,93.218 42.148,93.667 42.417,93.847 42.73,93.935 
		42.686,94.743 42.865,95.46 43.538,96.851 43.852,97.163 44.255,97.298 45.197,97.388 45.601,98.106 46.138,98.778 46.766,99.271 
		47.573,99.495 48.111,99.899 48.56,100.481 49.232,101.692 49.457,101.827 49.726,101.962 50.353,102.052 50.622,102.142 
		50.891,102.274 50.981,102.544 51.026,102.903 51.116,103.218 51.071,103.53 51.16,103.845 51.429,104.024 51.833,104.159 
		52.326,104.337 52.147,104.562 50.353,105.593 48.47,106.446 46.407,107.028 44.3,107.433 42.192,107.565 40.041,107.478 
		37.978,107.118 35.96,106.489 34.346,105.817 32.732,105.011 31.163,104.069 29.638,103.083 26.679,100.796 23.989,98.194 
		21.657,95.325 20.581,93.802 19.639,92.231 18.787,90.618 18.07,88.958 17.442,87.3 16.994,85.597 16.456,83.13 16.142,80.573 
		15.962,77.974 16.007,75.372 16.231,72.772 16.68,70.261 17.308,67.796 18.16,65.509 19.325,63.312 20.805,61.339 22.598,59.499 
		24.616,57.931 36.095,76.718 	"/>
	<polygon class="st0" points="42.91,63.132 44.39,64.073 45.959,64.835 49.188,66.315 50.757,67.122 52.191,68.019 53.582,69.185 
		54.792,70.575 55.554,71.696 56.182,72.862 57.168,75.327 58.11,77.794 58.693,78.96 59.5,80.036 59.949,80.573 60.262,81.112 
		60.442,81.739 60.486,82.368 60.038,82.726 59.769,82.815 59.545,82.771 59.366,81.919 59.231,81.515 58.962,81.202 58.11,81.604 
		57.707,81.739 57.213,81.739 56.317,81.604 55.554,81.337 54.747,79.005 53.851,76.673 53.313,75.597 52.64,74.521 51.878,73.489 
		50.981,72.548 49.726,71.472 48.425,70.53 46.99,69.813 45.511,69.274 40.399,61.249 40.668,61.204 40.893,61.249 41.879,62.19 
		42.91,63.132 	"/>
	<polygon class="st8" points="64.297,72.683 65.105,74.7 65.822,76.808 66.45,78.96 66.943,81.112 67.257,83.354 67.437,85.597 
		67.392,87.837 67.123,90.079 66.406,90.214 66.361,88.466 66.181,86.806 65.195,86.583 64.119,86.628 64.119,85.058 63.939,83.534 
		66.45,83.354 66.45,82.323 66.315,81.292 66.001,80.351 65.643,79.407 64.657,79.542 63.67,79.812 63.087,78.198 62.684,77.435 
		62.28,76.718 63.311,79.812 63.401,79.946 63.491,80.036 64.522,79.901 65.598,79.677 66.181,82.995 63.895,83.31 63.76,83.265 
		63.67,83.31 63.805,85.058 63.895,86.806 64.074,86.851 64.387,86.851 66.046,86.985 66.091,88.601 65.957,90.214 65.733,90.304 
		65.508,90.259 65.15,89.989 64.208,89.048 63.58,87.927 63.222,86.716 62.998,85.417 62.729,82.726 62.594,81.425 62.325,80.126 
		61.832,78.511 61.159,76.897 59.635,73.804 59.993,73.354 60.352,72.907 60.801,73.579 61.966,73.22 63.087,72.728 63.76,74.251 
		64.253,75.821 63.356,76.313 62.415,76.808 63.536,76.583 64.612,76.179 64.702,75.956 64.612,75.776 64.387,74.97 64.029,74.161 
		63.356,72.638 63.401,72.548 63.401,72.368 63.177,72.368 62.011,72.817 60.89,73.399 60.621,72.503 61.114,71.786 61.293,71.382 
		61.383,70.978 60.98,70.351 60.711,69.679 60.442,68.198 60.935,69.679 61.787,70.978 62.908,72.011 63.536,72.413 64.297,72.683 	
		"/>
	<polygon class="st9" points="53.268,77.21 51.519,78.421 50.667,77.39 48.649,74.161 46.632,70.933 48.604,72.054 50.488,73.489 
		52.102,75.237 52.729,76.179 53.268,77.21 	"/>
	<polygon class="st2" points="83.264,78.019 83.444,78.915 83.712,79.812 83.084,79.722 82.502,79.542 81.426,78.78 80.44,77.884 
		79.364,77.167 78.243,76.448 77.032,75.821 75.732,75.507 75.059,75.552 74.341,75.687 74.028,75.866 73.758,76.136 73.4,76.808 
		73.22,77.122 72.997,77.257 72.682,77.167 72.279,76.853 70.799,75.417 70.261,74.61 70.126,74.161 70.082,73.624 70.486,73.354 
		70.934,73.175 71.831,73.175 73.713,73.489 76.225,74.341 78.646,75.417 80.978,76.673 83.264,78.019 	"/>
	<polygon class="st8" points="62.415,83.534 61.742,83.22 61.024,82.95 61.024,82.233 60.935,81.604 60.666,80.933 60.352,80.351 
		59.545,79.185 58.828,78.019 58.245,76.628 57.796,75.192 58.559,74.655 59.321,74.073 60.442,76.269 61.428,78.556 62.101,80.978 
		62.415,83.534 	"/>
	<polygon class="st6" points="82.502,79.946 83.219,80.171 83.937,80.216 84.295,80.978 84.655,81.694 82.816,82.591 80.978,83.622 
		80.036,83.534 79.094,83.265 78.243,82.95 77.391,82.546 75.821,81.425 74.431,80.081 73.713,78.87 73.4,78.243 72.952,77.614 
		73.355,77.569 73.625,77.257 73.803,76.897 74.028,76.538 74.611,76.179 75.239,76.046 75.866,76.046 76.539,76.179 77.794,76.718 
		78.915,77.345 79.812,77.974 80.708,78.646 81.605,79.362 82.502,79.946 	"/>
	<polygon class="st5" points="80.708,79.095 81.785,80.351 82.143,81.067 82.368,81.829 82.233,82.368 81.964,82.86 81.157,83.175 
		80.35,83.31 79.542,83.265 78.781,82.995 77.256,82.233 75.866,81.247 75.104,80.483 74.431,79.677 73.938,78.78 73.758,77.704 
		74.028,77.257 74.341,76.853 74.79,76.538 75.283,76.313 76.807,76.628 78.198,77.257 79.498,78.063 80.708,79.095 	"/>
	<polygon class="st8" points="81.695,80.753 82.053,81.649 82.053,82.099 81.785,82.501 81.157,82.815 80.529,82.905 79.901,82.905 
		79.229,82.771 77.973,82.233 76.807,81.604 75.866,80.798 75.014,79.901 74.386,78.915 74.028,77.749 74.476,77.167 75.059,76.718 
		76.045,76.808 77.032,77.077 77.973,77.479 78.87,77.974 80.44,79.229 81.695,80.753 	"/>
	<polygon class="st5" points="80.978,80.573 81.157,81.292 81.022,81.964 80.843,82.278 80.529,82.413 79.812,82.501 78.421,82.009 
		77.122,81.292 75.956,80.351 74.969,79.229 74.656,78.556 74.611,78.153 74.701,77.749 74.924,77.479 75.239,77.345 75.866,77.167 
		77.391,77.614 78.781,78.331 80.036,79.319 80.978,80.573 	"/>
	<polygon class="st9" points="37.44,78.825 36.498,78.69 35.602,78.735 36.095,78.108 36.498,77.435 36.947,78.108 37.44,78.825 	
		"/>
	<polygon class="st8" points="77.391,78.556 77.615,79.185 77.615,79.542 77.48,79.812 77.077,79.812 76.718,79.677 76,79.185 
		75.866,78.87 75.866,78.511 76.135,78.421 76.404,78.511 76.897,78.646 76.583,78.376 76.135,78.243 75.821,78.286 75.552,78.511 
		75.552,78.87 75.687,79.185 76.135,79.722 76.897,80.081 77.301,80.126 77.705,79.946 78.243,80.261 78.781,80.618 79.094,81.067 
		79.229,81.649 79.184,81.829 79.004,81.874 78.198,81.56 77.883,81.337 77.66,80.933 77.705,80.708 77.794,80.573 77.928,80.573 
		78.108,80.618 78.333,80.798 78.466,80.888 78.556,80.753 78.153,80.438 77.66,80.351 77.48,80.438 77.391,80.618 77.301,81.067 
		76.539,80.483 75.776,79.856 75.239,79.095 74.969,78.153 75.059,77.929 75.194,77.749 75.687,77.614 76.225,77.614 76.718,77.794 
		77.122,78.153 77.391,78.556 	"/>
	<polygon class="st8" points="53.851,77.884 54.389,79.497 54.658,80.351 55.016,81.112 54.165,80.708 53.357,80.216 52.595,79.632 
		52.012,78.915 52.909,78.376 53.851,77.884 	"/>
	<polygon class="st8" points="79.542,79.319 78.915,79.005 78.601,78.915 78.243,78.915 78.333,79.14 78.288,79.185 77.928,79.095 
		77.705,78.511 77.301,77.974 78.511,78.511 79.542,79.319 	"/>
	<polygon class="st6" points="37.753,79.407 39.637,82.86 41.296,86.358 40.041,87.702 39.099,89.093 37.35,87.3 36.677,85.954 
		35.736,84.653 35.153,84.116 34.525,83.712 33.853,83.399 33.09,83.265 32.418,83.265 31.791,83.487 33.449,81.337 35.243,79.14 
		35.871,79.005 36.498,79.095 37.753,79.407 	"/>
	<polygon class="st8" points="80.485,80.351 80.036,80.171 79.812,80.081 79.542,80.081 79.408,80.261 79.498,80.394 79.677,80.708 
		79.184,80.618 78.781,80.351 78.376,79.991 77.928,79.812 77.973,79.497 78.198,79.542 78.511,79.677 78.826,79.677 78.959,79.587 
		78.915,79.452 78.826,79.272 79.767,79.722 80.215,79.946 80.485,80.351 	"/>
	<polygon class="st2" points="75.462,81.649 74.341,84.788 73.893,86.448 73.625,88.106 71.741,88.868 69.813,89.452 70.53,87.03 
		71.472,84.698 72.727,82.501 74.208,80.394 74.879,81.022 75.462,81.649 	"/>
	<polygon class="st8" points="80.843,81.112 80.843,81.604 80.529,82.009 80.305,82.144 80.081,82.144 79.542,82.009 79.632,81.739 
		79.587,81.425 79.587,81.157 79.812,81.067 80.305,81.067 80.17,80.843 80.036,80.708 79.991,80.528 80.485,80.753 80.843,81.112 	
		"/>
	<polygon class="st8" points="56.227,86.761 53.626,88.511 50.936,90.034 48.291,91.649 45.78,93.487 44.076,93.577 43.269,93.442 
		42.551,93.128 43.672,92.321 44.614,91.38 45.376,90.349 46.049,89.228 46.497,88.017 46.901,86.761 47.304,84.116 47.259,83.757 
		47.214,83.354 48.156,83.757 49.188,84.026 50.263,84.161 51.34,84.206 53.492,83.937 54.523,83.667 55.509,83.265 56.317,82.815 
		57.213,82.456 58.065,82.099 58.873,81.56 59.007,82.368 58.962,83.175 58.738,83.892 58.379,84.565 57.393,85.774 56.227,86.761 	
		"/>
	<polygon class="st12" points="75.956,82.009 75.328,84.743 75.014,87.524 74.521,87.702 74.341,87.747 74.251,87.567 
		74.431,86.044 74.745,84.608 75.642,81.784 75.821,81.874 75.956,82.009 	"/>
	<polygon class="st0" points="28.203,85.909 29.189,86.448 30.131,87.255 31.746,88.913 31.88,89.722 31.97,90.483 31.297,91.065 
		29.189,89.542 28.069,88.913 26.903,88.376 26.858,88.421 27.979,89.003 29.055,89.722 30.131,90.528 31.073,91.425 30.669,92.187 
		29.1,90.841 27.351,89.722 25.513,88.823 23.585,88.106 22.867,87.345 22.24,86.493 21.747,85.64 21.388,84.698 21.433,83.937 
		21.881,83.22 22.464,82.636 23.136,82.144 23.989,82.054 24.75,82.278 25.378,82.726 25.961,83.31 27.038,84.698 27.576,85.327 
		28.203,85.909 	"/>
	<polygon class="st2" points="80.26,84.071 77.973,85.64 75.597,87.12 75.597,85.909 75.687,84.653 76.18,82.144 77.122,82.815 
		78.153,83.31 80.26,84.071 	"/>
	<polygon class="st9" points="61.607,83.937 61.966,85.774 62.459,87.524 62.773,88.376 63.222,89.183 63.805,89.899 64.477,90.573 
		63.311,91.739 62.908,92.366 62.549,93.038 62.146,94.519 62.19,96.087 62.549,97.657 63.177,99.138 64.164,100.437 
		65.418,101.513 63.536,101.558 61.652,101.782 59.904,102.097 58.424,102.589 58.469,102.634 58.379,102.634 58.245,102.679 
		58.245,102.679 57.393,102.993 56.451,103.396 54.658,104.382 53.268,103.935 51.922,103.44 51.878,103.351 51.743,103.351 
		51.564,102.858 51.519,102.634 51.609,102.409 52.281,102.544 52.595,102.544 52.774,102.274 50.936,101.737 49.995,101.423 
		49.232,100.931 49.143,100.481 48.963,100.124 48.515,99.495 49.77,99.226 49.277,99.048 48.739,98.958 47.663,98.913 
		47.349,98.913 47.08,98.778 46.632,98.284 46.228,97.837 45.959,97.388 46.676,97.208 47.035,97.073 47.483,97.073 46.856,96.896 
		46.183,96.851 44.793,96.716 44.614,96.761 44.479,96.761 44.166,96.536 43.852,96.087 43.583,95.55 43.269,94.429 43.403,94.249 
		44.479,94.249 45.556,94.024 47.618,93.397 49.412,92.231 51.205,90.931 52.954,89.632 54.792,88.376 56.227,87.39 57.662,86.313 
		58.245,85.729 58.828,85.058 59.231,84.296 59.5,83.399 60.576,83.622 61.607,83.937 	"/>
	<polygon class="st5" points="25.154,84.161 25.468,84.968 25.513,85.372 25.378,85.819 24.93,86.269 24.661,86.403 24.347,86.403 
		23.854,86.358 23.451,86.134 22.823,85.417 22.688,84.698 22.867,83.981 23.181,83.667 23.629,83.487 24.078,83.534 24.482,83.667 
		25.154,84.161 	"/>
	<polygon class="st9" points="35.108,84.431 35.96,85.64 36.677,86.94 36.902,87.614 36.991,88.331 36.902,89.048 36.677,89.765 
		36.229,90.124 36.005,90.169 35.781,90.034 35.422,89.81 35.377,89.899 36.991,91.425 37.44,93.173 37.664,94.966 37.081,95.325 
		36.498,95.595 35.736,94.339 34.839,93.128 33.763,92.052 32.553,91.2 32.104,88.511 31.925,87.837 31.701,87.255 31.342,86.716 
		30.894,86.224 30.714,86.224 31.118,86.985 31.477,87.792 30.714,87.12 29.862,86.403 30.535,85.237 31.342,84.071 32.239,83.712 
		33.27,83.667 34.256,83.892 35.108,84.431 	"/>
	<polygon class="st8" points="25.064,84.565 25.199,85.147 25.199,85.462 25.109,85.729 24.661,85.999 24.123,85.954 23.809,85.864 
		23.495,85.597 23.092,85.013 23.092,84.476 23.316,83.981 23.764,83.802 24.302,83.892 24.706,84.206 25.064,84.565 	"/>
	<polygon class="st6" points="75.821,99.63 76.36,100.526 77.032,101.378 77.794,102.097 78.646,102.724 72.324,102.007 
		69.095,101.692 66.001,101.513 65.105,100.841 64.387,100.034 63.805,99.181 63.356,98.239 62.998,97.253 62.863,96.177 
		62.818,95.056 62.908,93.935 63.177,93.038 63.625,92.142 64.253,91.38 64.657,91.155 65.15,90.976 68.199,90.618 71.113,89.989 
		73.938,89.093 76.673,87.882 76,89.228 75.462,90.618 75.014,92.097 74.745,93.667 74.656,95.19 74.79,96.716 75.194,98.239 
		75.821,99.63 	"/>
	<polygon class="st9" points="39.144,92.187 38.875,94.429 38.516,93.979 38.067,93.577 37.664,91.962 37.305,91.245 36.677,90.663 
		36.947,90.573 37.171,90.349 37.44,89.765 37.574,88.868 37.53,87.972 38.202,88.913 38.74,89.899 39.099,91.021 39.144,92.187 	
		"/>
	<polygon class="st9" points="30.4,92.726 30.221,93.397 29.189,93.308 28.203,93.487 27.351,93.847 26.679,94.563 26.903,94.474 
		27.082,94.339 27.351,94.159 27.62,94.069 28.517,93.847 29.503,93.802 31.432,94.114 31.387,93.979 31.297,93.847 30.983,93.667 
		30.759,93.532 31.297,92.187 32.059,90.886 32.059,91.245 32.149,91.604 33.046,92.276 33.897,93.083 33.404,94.653 32.956,96.222 
		31.118,96.761 30.221,97.073 29.369,97.522 29.279,97.747 29.458,97.972 29.683,98.194 29.997,98.239 29.772,97.972 29.683,97.792 
		29.728,97.567 30.669,97.298 31.656,97.118 32.642,96.896 33.583,96.581 34.211,93.442 35.153,94.608 36.005,95.864 35.512,97.882 
		34.48,98.194 33.539,98.599 31.701,99.63 30.311,99.315 28.875,98.913 28.472,98.017 28.158,97.612 27.71,97.388 26.455,97.208 
		25.827,96.985 25.603,96.806 25.423,96.491 25.603,94.966 25.961,93.532 26.455,92.097 27.127,90.753 28.069,90.931 28.875,91.425 
		30.4,92.726 	"/>
	<polygon class="st9" points="38.785,94.966 38.157,97.253 37.664,99.585 36.005,100.212 35.153,100.571 34.391,101.021 
		34.48,101.11 36.274,100.481 38.112,99.899 38.561,97.567 39.054,95.235 39.458,95.64 39.771,96.087 39.278,98.017 39.054,99.048 
		38.964,100.079 38.023,100.481 37.036,100.886 36.095,101.288 35.198,101.782 34.705,101.423 34.256,101.11 33.315,100.976 
		32.373,100.796 32.104,100.437 31.791,100.079 32.059,99.765 32.463,99.54 33.315,99.093 34.525,98.778 35.781,98.374 
		35.96,97.882 36.05,97.298 36.229,96.132 36.633,96.177 37.126,95.997 38.023,95.46 38.157,94.788 38.112,94.069 38.471,94.519 
		38.785,94.966 	"/>
	<polygon class="st0" points="43.403,101.737 43.269,102.634 42.91,103.485 42.327,104.204 41.565,104.651 41.341,104.651 
		41.206,104.517 40.444,104.204 39.727,103.8 39.054,103.306 38.471,102.679 38.292,101.962 38.067,101.243 39.368,100.526 
		39.637,99.048 39.951,97.567 40.085,98.239 40.399,98.823 41.296,99.899 42.327,100.886 43.403,101.737 	"/>
	<polygon class="st5" points="41.879,101.378 42.014,102.007 41.923,102.634 41.43,103.128 41.072,103.218 40.713,103.218 
		40.13,102.948 39.727,102.454 39.547,101.692 39.637,101.333 39.861,101.021 40.13,100.796 40.534,100.706 41.296,100.886 
		41.879,101.378 	"/>
	<polygon class="st8" points="41.699,101.737 41.745,102.231 41.61,102.634 41.117,102.903 40.624,102.903 40.13,102.544 
		39.861,101.962 39.906,101.513 40.22,101.2 41.072,101.2 41.43,101.378 41.699,101.737 	"/>
	<polygon class="st8" points="63.491,102.499 63.267,103.038 62.908,103.485 62.549,103.351 62.146,103.218 61.876,103.038 
		61.966,102.634 62.594,102.544 63.267,102.544 63.491,102.499 	"/>
	<polygon class="st8" points="61.249,102.769 60.621,103.62 59.769,104.204 58.783,104.562 57.796,104.741 57.034,104.606 
		56.406,104.204 57.482,103.62 58.693,103.218 61.249,102.769 	"/>
	<polygon class="st8" points="61.966,103.53 62.325,103.71 62.639,103.935 62.998,104.562 62.953,105.056 62.773,105.458 
		62.101,106.222 61.607,106.534 61.069,106.759 59.904,106.894 59.186,106.669 58.873,106.446 58.693,106.132 58.559,105.772 
		58.648,105.503 58.828,105.325 59.097,105.19 59.769,105.011 60.128,104.921 60.352,104.741 61.114,104.204 61.742,103.53 
		61.832,103.62 61.966,103.53 	"/>
</g>
</svg>
