<?xml version="1.0" encoding="utf-8"?>
<!-- Generator: Adobe Illustrator 16.0.3, SVG Export Plug-In . SVG Version: 6.00 Build 0)  -->
<!DOCTYPE svg PUBLIC "-//W3C//DTD SVG 1.1//EN" "http://www.w3.org/Graphics/SVG/1.1/DTD/svg11.dtd">
<svg version="1.1" id="Layer_1" xmlns="http://www.w3.org/2000/svg" xmlns:xlink="http://www.w3.org/1999/xlink" x="0px" y="0px"
	 width="80px" height="80px" viewBox="0 0 80 80" style="enable-background:new 0 0 80 80;" xml:space="preserve">
<style type="text/css">
<![CDATA[
	.st0{fill:#8CC63F;}
	.st1{fill:#754E00;}
]]>
</style>
<g>
	<g>
		<path class="st0" d="M25.857,36.863c-0.869-3.343-2.553-7.012-5.881-7.938c-3.166-0.881-6.81,1.699-7.031,4.978
			c-0.992,5.735-1.062,9.42-0.581,15.221c0.164,1.969,0.483,4.085,1.87,5.492c1.409,1.431,3.562,1.767,5.559,1.971
			c1.637,0.168,3.397,0.272,4.816-0.561c2.182-1.28,2.669-4.191,2.717-6.721C27.407,45.117,26.911,40.918,25.857,36.863z"/>
	</g>
	<g>
		<path class="st0" d="M65.849,11.39c-1.219-4.694-3.584-9.846-8.256-11.145c-4.445-1.236-9.561,2.386-9.871,6.989
			c-1.393,8.053-1.491,13.225-0.815,21.37c0.229,2.764,0.678,5.735,2.625,7.711c1.979,2.008,5,2.48,7.805,2.767
			c2.297,0.235,4.77,0.383,6.762-0.787c3.063-1.799,3.747-5.886,3.814-9.437C68.024,22.977,67.328,17.082,65.849,11.39z"/>
	</g>
	<g>
		<path class="st0" d="M54.927,61.267c-0.48-1.11-1.454-2.317-3.47-2.579c-1.919-0.25-4.179,0.67-4.361,1.774
			c-0.689,1.939-0.786,3.178-0.577,5.118c0.07,0.658,0.234,1.364,1.06,1.816c0.839,0.46,2.146,0.541,3.361,0.58
			c0.996,0.033,2.068,0.042,2.946-0.259c1.35-0.462,1.689-1.446,1.755-2.296C55.751,64.015,55.51,62.612,54.927,61.267z"/>
	</g>
	<g>
		<path class="st0" d="M44.564,22.695c-1.045-4.021-3.07-8.434-7.072-9.547c-3.808-1.06-8.19,2.043-8.456,5.987
			c-1.193,6.898-1.277,11.329-0.698,18.305c0.196,2.368,0.581,4.914,2.248,6.606c1.695,1.72,4.283,2.124,6.686,2.37
			c1.968,0.201,4.085,0.327,5.792-0.674c2.624-1.541,3.211-5.042,3.269-8.084C46.428,32.621,45.831,27.571,44.564,22.695z"/>
	</g>
	<path class="st1" d="M59.379,36.531c-0.075-2.314-0.179-4.629-0.407-6.933c-0.102-1.025-0.193-2.051-0.336-3.071
		c-0.07-0.508-0.117-1.037-0.229-1.538c-0.153-0.694-0.526-1.26-0.624-1.963c-0.111-0.791-1.182-0.471-1.269,0.172
		c-0.065,0.491-0.479,1.242-0.59,1.791c-0.102,0.504-0.15,1.029-0.22,1.538c-0.114,0.844-0.191,1.689-0.271,2.538
		c-0.183,1.955-0.283,3.904-0.363,5.866c-0.081,1.955-0.108,3.911-0.155,5.867c-0.041,1.761,0.022,3.579-0.405,5.299
		c-0.687,2.761-2.895,4.648-5.486,5.642c-1.593,0.61-3.295,0.928-4.989,1.068c-1.429,0.117-3.119-0.091-4.615,0.108
		c0.078-7.928,0.383-15.983-1.159-23.784c-0.2-1.009-1.777-0.971-2.002,0c-1.821,7.853-1.739,16.051-1.925,24.083
		c-0.072,3.072-0.171,6.153-0.257,9.236c-3.812,0.311-8.079,0.887-10.112-3.171c-1.641-3.272-0.86-7.862-3.502-10.656
		c-0.449-0.475-1.197-0.089-1.228,0.509c-0.056,1.121,0.102,2.269,0.13,3.395c0.028,1.113,0.009,2.225,0.089,3.335
		c0.167,2.308,0.472,4.753,1.737,6.75c2.644,4.174,8.086,5.039,12.776,4.413c-0.034,1.679-0.057,3.356-0.063,5.033
		c-0.071,0.274-0.07,0.561,0,0.825c-0.001,1.56,0.009,3.118,0.045,4.674c0.076,3.274,4.883,3.242,5.063,0
		c0.084-1.522,0.144-3.049,0.193-4.575c0.863-0.352,1.704-0.73,2.482-1.016c1.917-0.701,3.912-1.27,5.702-2.271
		c1.489-0.832,3.03-2.054,3.778-3.635c0.465-0.984,0.882-2.897,0.036-3.766c-0.119-0.122-0.286-0.07-0.378,0.049
		c-0.388,0.503-0.407,1.139-0.716,1.7c-0.338,0.615-0.813,1.237-1.288,1.755c-1.15,1.251-2.757,1.907-4.344,2.41
		s-3.206,0.902-4.821,1.305c-0.119,0.029-0.241,0.058-0.364,0.086c0.077-3.935,0.083-7.875,0.097-11.808
		c0.792,0.064,1.618-0.007,2.382-0.029c1.005-0.029,2.011-0.081,3.011-0.189c2.015-0.219,4.016-0.563,5.901-1.323
		c3.458-1.395,6.469-3.811,7.88-7.341C60.101,45.067,59.51,40.562,59.379,36.531z"/>
</g>
</svg>
